<svg width="1816" height="980" viewBox="0 0 1816 980" fill="none" xmlns="http://www.w3.org/2000/svg">
<mask id="mask0_1_25" style="mask-type:luminance" maskUnits="userSpaceOnUse" x="0" y="0" width="1816" height="980">
<path d="M1742.1 980H73.9C33.1 980 0 946.9 0 906.1V73.9C0 33.1 33.1 0 73.9 0H1742C1782.8 0 1815.9 33.1 1815.9 73.9V906C1816 946.9 1782.9 980 1742.1 980Z" fill="white"/>
</mask>
<g mask="url(#mask0_1_25)">
<g opacity="0.2">
<path d="M645 932.3C588.1 923.3 531.4 933.1 474.1 936.7C531.5 912.1 587.7 885.1 646.6 863.8C690.8 847 735 830 780.3 816.2C782.3 815.6 783.5 812.4 785.1 810.3C778.8 804 769.5 811.2 761.7 811.4C672 830.7 585.1 863 501.7 901C356.7 967.2 218.6 1061.7 131.7 1198C129.1 1202.4 121.5 1210.4 130.3 1214.4C144.1 1220.9 166.1 1170.9 179.2 1161.6C209.5 1128.8 240.5 1096.5 272.5 1065.2C282.9 1054.9 296 1044.7 309.7 1041C442 1010.5 580.4 1019.9 713 1044.3C718.6 1045.5 725.7 1053.1 728.1 1042.9C730.5 1032.8 719.4 1032.2 713 1029C590.8 999.2 468.8 992.6 342.4 1014.2C369.2 997 390.4 978 419.6 972.8C459.3 965.7 498.6 957.7 538.9 953.2C619 948 699.4 949.8 777.5 969.1C780.2 969.8 785.1 971.3 785.8 966.2C780.8 940.7 670.3 936.4 645 932.3Z" fill="black"/>
<path d="M1826.1 282.6C1777.6 220.2 1709.5 177.3 1644.1 134.1C1547.5 72.3 1450.1 14.9 1342 -24.4C1173.8 -98.4 991.9 -126.8 809.5 -134C780.3 -135.3 750.9 -130.5 721.8 -132.1C655.5 -136 590.8 -124.4 525.3 -117C391.7 -95 261.2 -53.3 138.3 3.39999C111.1 16.9 1.80001 56.9 1.90001 83.9C7.40001 98.2 25.2 82.7 33.6 78.8C90 32.4 160.8 42 227.8 50.8C350 70.1 472.9 111 570.8 188.3C586.1 200.6 606.6 205.4 618.2 220.7C603.7 226.4 589.6 234.5 574.6 237.5C502.3 254.1 437.4 291.3 369.7 319.4C300.4 345.1 239.7 385.8 176.6 423.4C114 465.7 51.8 509 2.6 566.7C-1.1 570.8 -7 576.2 -7 582.5C-7.3 590.5 1.3 592.3 8.6 585.5C154.1 435.5 348 345.5 540.8 271.8C570.1 261.9 599 251.5 629.3 244C662.8 235.7 693.6 217.3 730.2 230.6C760.2 241.5 791.1 250.2 821.5 260C850.5 269.3 875.7 286.3 902.6 299.9C927.3 312.4 952.8 323 975.6 339.1C992.4 348.4 1020.8 376.6 1037.6 377C1037.2 374.5 1037.4 370.1 1036.3 369.7C1024.7 366 1021.1 353.6 1011.8 347.3C989.4 332.4 967 317.5 945.4 301.6C882.3 256.8 820.2 243 743.8 216.1C898.1 187.5 1037.5 280.5 1153.7 370.3C1161.2 376.8 1173.8 369.8 1162.2 363.9C1086.7 279.7 1001.2 242.7 899.5 201.9C1041.2 188.2 1185.5 223.5 1326.1 244.8C1331.4 245.7 1340.8 244.8 1342.1 242C1344.8 236.1 1335.9 237.5 1332.8 234.5C1150.7 175.4 952.3 162.5 762.7 189.6C757.3 190.4 750 194.3 747 192.1C728.6 178.7 711 164.1 693.4 149.8C574.4 57 432.6 -2.50002 285.2 -32.2C310.8 -40 335.3 -48.6 360.3 -54.9C384.2 -60.9 407 -75.8 433.3 -67.5C547.4 -29.1 649.3 36.3 750.7 99.7C778.3 117.6 804.9 136.9 832.2 155.2C836.2 157.9 840.7 155.6 843.6 151.9C847.3 147.3 843 144.9 840.2 143C803.5 118.3 772.1 86.7 730.9 67.3C637.7 12 549.2 -51.1 441.4 -77.1C483.7 -85 516.7 -98.6 558.4 -92C695.7 -46.8 807.2 44.5 923.3 127.2C925.5 128.8 928.7 132.2 930.6 127.2C931.6 124.6 933.7 121.5 929.5 118.4C832.7 42.3 732.3 -30.7 618.7 -79.5C604.1 -87.2 585.9 -86.6 572.2 -100.4C787.4 -117.5 1008.9 -112.9 1215.8 -46C1289.9 -26.8 1341.4 28.1 1405.6 65.5C1463.9 117.3 1516.4 175.3 1562.2 238.5C1584.2 269.9 1604.2 302 1619.4 337.3C1620.4 339.6 1623.8 341 1626.1 342.9C1632.5 306.7 1579.2 234.6 1558.1 203C1505.1 127.1 1439.6 65.9 1364.2 11.5C1434.7 32.5 1500 73.6 1563.3 111.7C1630.3 152.6 1697.8 193.4 1759.1 242.6C1778.2 257.8 1794.9 275.8 1813.2 291.9C1820.4 297.6 1834.3 294.1 1826.1 282.6ZM308.1 -16.8C460.2 22.2 605 93.2 724.5 195.4C699.1 201.8 671.8 211.1 643.9 214.8C626.4 217.1 615.9 198 602.5 188.6C467.3 91.6 304.8 25.8 137.1 27.7C195.4 10.8 245 -35.4 308.1 -16.8Z" fill="black"/>
<path d="M1808.6 944.4C1766 917.2 1724.2 888 1681.1 861.4C1510.5 756.1 1316.2 700.2 1121 662.4C1063.7 649.3 1005 639.1 946.6 634.3C918.6 633.9 890.9 629.7 862.6 632.2C847.7 633.5 830.7 636.6 814.8 629C915.8 539.5 1142.1 439.8 1276.6 450.8C1435.7 495 1580.5 592.5 1685.7 719.2C1693.2 727.3 1701.2 735 1707.7 743.8C1710.1 747 1710.6 752.7 1715.6 750C1720.1 747.5 1721.6 742.6 1716.8 737.6C1609.4 600.6 1468.9 489.1 1299 441.6C1324.3 434.3 1349.2 439.5 1372.8 435.2C1421.7 426.4 1466 434.3 1508.2 460.1C1565.2 495.2 1618.8 535.5 1668.2 580.5C1701 607.1 1720.3 649.1 1755.6 671.5C1761.2 662.6 1725.7 622 1718.7 611.5C1655.7 535 1580 478.1 1490.6 432.3C1597.7 432.6 1698.9 441.4 1802.1 467.5C1806.6 469 1811.1 468.8 1811.1 464.5C1811.1 461.6 1808.5 459.1 1804.9 458.1C1589.2 395.1 1354.1 397.7 1136.3 449.9C1066.9 464.4 1003.8 495.6 939.9 525.2C901 542.8 865.6 566.7 833.7 594.2C807.3 617 783.5 639.4 745.2 633.6C736.2 632 727 632.1 718 633.8C677.8 643 636.2 640.6 596.1 651.1C454.7 677.6 314.9 720.9 186.8 787.2C122.8 826.8 52.5 858.9 -1.1 913C-5.1 917.2 -11.6 922.6 -6.9 928C-0.9 934.7 3.8 926 8.2 922.8C155.9 807.7 330.2 733.8 511.3 689.2C708.5 638.2 760.4 660.4 936.7 754.5C1104.4 840.9 1240.8 972.1 1362.7 1114C1365.2 1116.7 1367.7 1120.9 1371.7 1117.2C1376 1113.2 1370.8 1110.6 1368.9 1108.1C1219.1 895.1 998 737.1 752.6 652.2C865.6 651.9 905.3 642.2 1004.7 707C1179 811.2 1338 945.4 1460.5 1108C1469.8 1123.8 1484 1115.7 1471.3 1101.5C1336.5 910.5 1149.4 761.4 941.6 655.2C1064.4 671.9 1111.5 663.1 1213.8 742.6C1341.2 836.9 1455.6 947.8 1553.7 1072.2C1564.5 1086 1570.2 1105.2 1593.8 1114.2C1482.8 937.9 1336.9 802.8 1160.4 694.4C1181.2 690.9 1194.6 700.9 1209.5 704.7C1254.5 715.9 1301 720.3 1341.4 748.3C1479.9 838.9 1597.2 957.1 1690.4 1093.6C1696.9 1103.1 1702.4 1121.6 1712.5 1118.5C1721.1 1115.8 1708.1 1103.6 1703.9 1095.9C1621.3 949.3 1495.5 834.3 1356.6 741.2C1403.4 748.9 1442.7 773.7 1486.1 790.5C1556.9 818.5 1627 848.2 1693.5 885.3C1731 906.2 1767.1 929.9 1803.6 952.6C1807 954.8 1809.2 954.6 1811.5 952C1815 948.1 1810.5 946.3 1808.6 944.4Z" fill="black"/>
</g>
</g>
</svg>
