<svg width="118" height="41" viewBox="0 0 118 41" fill="none" xmlns="http://www.w3.org/2000/svg">
<mask id="mask0_45_54" style="mask-type:alpha" maskUnits="userSpaceOnUse" x="77" y="0" width="41" height="41">
<rect x="118" y="40.7382" width="40.7381" height="40.7381" transform="rotate(180 118 40.7382)" fill="#D9D9D9"/>
</mask>
<g mask="url(#mask0_45_54)">
<mask id="mask1_45_54" style="mask-type:luminance" maskUnits="userSpaceOnUse" x="48" y="-30" width="70" height="71">
<path d="M83.3897 -29.2761C64.3128 -29.2761 48.8479 -13.6802 48.8479 5.55841C48.8479 24.797 64.3128 40.3929 83.3897 40.3929C102.467 40.3929 117.932 24.797 117.932 5.55841C117.932 -13.6802 102.467 -29.2761 83.3897 -29.2761Z" fill="white"/>
</mask>
<g mask="url(#mask1_45_54)">
<path d="M246.856 0.103679C251.58 0.103679 255.38 3.97035 255.38 8.70011V77.8858C255.38 82.6501 251.546 86.4822 246.856 86.4822H85.8545C81.1303 86.4822 77.3303 82.6156 77.3303 77.8858V8.70011C77.3303 3.93583 81.1645 0.103679 85.8545 0.103679H246.856Z" fill="#202020"/>
</g>
</g>
<mask id="mask2_45_54" style="mask-type:alpha" maskUnits="userSpaceOnUse" x="0" y="0" width="41" height="41">
<rect x="40.7382" y="40.7382" width="40.7381" height="40.7381" transform="rotate(180 40.7382 40.7382)" fill="#D9D9D9"/>
</mask>
<g mask="url(#mask2_45_54)">
<mask id="mask3_45_54" style="mask-type:luminance" maskUnits="userSpaceOnUse" x="-29" y="-30" width="70" height="71">
<path d="M6.12789 -29.2761C-12.949 -29.2761 -28.4139 -13.6802 -28.4139 5.55841C-28.4139 24.797 -12.949 40.3929 6.12789 40.3929C25.2048 40.3929 40.6697 24.797 40.6697 5.55841C40.6697 -13.6802 25.2048 -29.2761 6.12789 -29.2761Z" fill="white"/>
</mask>
<g mask="url(#mask3_45_54)">
<path d="M169.594 0.103679C174.318 0.103679 178.118 3.97035 178.118 8.70011V77.8858C178.118 82.6501 174.284 86.4822 169.594 86.4822H8.59267C3.86842 86.4822 0.0684947 82.6156 0.0684947 77.8858V8.70011C0.0684947 3.93583 3.90266 0.103679 8.59267 0.103679H169.594Z" fill="#202020"/>
</g>
</g>
<path d="M117.505 0.10022L8.21198 0.100224L5.99824 40.3955L83.5924 40.3955L117.505 0.10022Z" fill="#202020"/>
</svg>
