<svg width="62" height="61" viewBox="0 0 62 61" fill="none" xmlns="http://www.w3.org/2000/svg">
<mask id="mask0_45_85" style="mask-type:alpha" maskUnits="userSpaceOnUse" x="0" y="0" width="62" height="61">
<rect x="0.948975" y="0.441467" width="60.7508" height="60.2402" fill="#D9D9D9"/>
</mask>
<g mask="url(#mask0_45_85)">
<mask id="mask1_45_85" style="mask-type:luminance" maskUnits="userSpaceOnUse" x="1" y="0" width="104" height="104">
<path d="M52.5615 103.973C81.01 103.973 104.072 80.911 104.072 52.4625C104.072 24.014 81.01 0.951965 52.5615 0.951965C24.113 0.951965 1.05103 24.014 1.05103 52.4625C1.05103 80.911 24.113 103.973 52.5615 103.973Z" fill="white"/>
</mask>
<g mask="url(#mask1_45_85)">
<path d="M-191.207 60.5285C-198.252 60.5285 -203.919 54.8108 -203.919 47.8168V-54.4895C-203.919 -61.5345 -198.201 -67.2012 -191.207 -67.2012H48.8859C55.9309 -67.2012 61.5976 -61.4835 61.5976 -54.4895V47.8168C61.5976 54.8619 55.8799 60.5285 48.8859 60.5285H-191.207Z" fill="#D9D9D9"/>
</g>
</g>
</svg>
