<svg width="123" height="203" viewBox="0 0 123 203" fill="none" xmlns="http://www.w3.org/2000/svg">
<mask id="mask0_45_29" style="mask-type:luminance" maskUnits="userSpaceOnUse" x="0" y="0" width="123" height="203">
<path d="M0 0.814946V202.09C0 202.505 0.363218 202.868 0.778325 202.868H121.367C121.782 202.868 122.145 202.505 122.145 202.09V0.814946C122.145 0.399839 121.782 0.0366211 121.367 0.0366211H0.778325C0.363218 0.0366211 0 0.399839 0 0.814946Z" fill="white"/>
</mask>
<g mask="url(#mask0_45_29)">
<path d="M93.3988 194.047C97.1348 193.424 104.555 190.726 103.828 185.849C100.456 183.202 95.1112 186.99 93.6583 190.674C93.347 191.297 94.0734 191.505 94.0215 192.075C94.0734 192.802 91.8941 193.528 93.3988 194.047ZM78.2474 192.957C82.3466 192.179 91.0119 184.448 85.3042 181.283C81.205 181.127 73.6294 189.637 78.2474 192.957ZM62.4734 191.141C64.964 191.505 72.436 182.58 67.766 180.089C63.8744 180.193 57.8553 188.858 62.4734 191.141ZM83.5919 170.49C85.3561 167.117 76.0681 156.791 73.5775 160.527C74.0964 164.367 77.988 170.49 82.4504 169.763C82.9692 169.711 83.0731 170.49 83.5919 170.49ZM107.616 161.721C111.871 159.282 114.102 152.329 110.833 148.697C106.319 151.135 103.776 158.348 107.616 161.721ZM42.0813 144.338C43.5342 144.182 46.9588 143.871 48.3598 141.951C47.322 135.05 28.7979 142.729 42.0813 144.338ZM80.8937 144.286C83.073 144.39 83.4363 143.352 83.5919 141.744C82.6061 139.357 75.8606 137.333 72.903 139.201C74.3558 142.107 77.4172 144.39 80.8937 144.286ZM109.277 143.248C111.3 143.248 113.531 142.107 114.881 140.55C115.296 140.031 114.31 139.564 114.725 138.994C114.829 138.734 114.725 138.423 114.465 138.319C114.465 138.319 114.465 138.319 114.414 138.319C111.041 136.503 107.305 137.644 103.932 139.512C102.064 141.899 107.357 143.3 109.277 143.248ZM66.3131 133.908C69.8415 130.951 71.1906 124.672 69.3745 120.418C64.2376 122.389 63.1998 130.536 66.3131 133.908ZM33.5197 133.649C35.5434 133.649 42.185 132.507 39.0717 129.135C34.1424 125.191 22.3637 132.715 33.5197 133.649ZM93.6063 131.574C98.5876 130.743 93.2431 123.686 89.144 122.13C86.1863 122.493 88.21 126.437 89.2478 127.578C90.2855 128.927 91.6346 130.951 93.6063 131.574ZM103.206 127.682C106.475 127.007 111.975 114.554 106.423 114.347C102.22 116.474 101.026 121.507 101.597 125.71C103.206 126.8 102.22 127.371 103.206 127.682ZM31.3404 123.323C33.5197 123.271 35.5953 122.649 36.633 120.885C37.9821 119.172 32.3781 118.186 31.3404 118.238C23.8166 118.446 22.8826 122.804 31.3404 123.323ZM57.6478 119.38C60.7611 117.252 64.964 107.238 60.1384 106.044C56.2468 108.379 54.1194 116.578 57.6478 119.38ZM47.322 110.714C51.1617 108.224 53.7042 100.804 49.7088 98.2093C45.4021 100.441 44.8314 107.549 47.322 110.714Z" fill="#50B271"/>
<path d="M41.303 186.471C44.6238 185.485 46.2323 182.165 46.855 179.155C48.5673 173.188 34.8688 185.278 41.303 186.471ZM31.8074 180.66C35.1801 179.778 37.6189 175.523 37.8264 172.513C33.1565 171.528 26.6704 179.933 31.8074 180.66ZM22.3119 173.966C25.4252 173.447 27.3969 171.009 29.2648 167.999C29.3167 162.914 14.2692 172.098 22.3119 173.966ZM14.6324 165.353C17.1749 165.301 19.0429 163.485 20.859 161.876C24.9063 158.192 15.6183 159.282 14.5286 160.735C12.1936 161.513 11.7785 165.197 14.6324 165.353ZM57.4402 165.093C59.5676 163.07 57.4402 158.971 56.4543 156.532C50.2277 150.98 54.3269 164.211 57.4402 165.093ZM46.0767 162.188C48.4116 159.956 47.4777 153.211 44.0011 151.551C38.5529 150.513 43.2228 161.202 46.0767 162.188ZM34.7131 156.687C37.0481 154.352 35.2839 149.631 33.8829 147.244C32.8452 145.324 29.7838 145.428 30.0951 147.918C30.4583 151.551 32.3263 154.508 34.7131 156.687ZM24.0241 154.197C25.3213 152.225 22.727 147.503 21.5335 145.531C13.6984 139.045 11.986 149.994 24.0241 154.197ZM20.859 110.87C22.2599 111.129 29.4206 109.002 26.9818 107.082C21.8449 104.747 12.7644 109.884 20.859 110.87ZM96.4602 102.308C99.7811 103.242 107.824 97.0678 101.908 95.8744C98.8471 95.6668 85.875 102.049 96.4602 102.308ZM17.2268 101.842C19.6136 101.634 22.7269 100.7 24.0241 98.7801C22.8826 96.9121 17.6938 96.8083 15.6183 97.898C13.4908 99.3508 14.8399 101.945 17.2268 101.842ZM35.3358 96.8602C43.6379 94.3177 41.9775 84.5627 38.1897 88.5062C36.633 90.945 33.6754 94.5771 35.3358 96.8602ZM83.2806 95.6149C85.0448 94.8366 83.1768 91.5157 82.3985 90.7374C74.2001 82.3315 71.2944 92.7092 83.2806 95.6149ZM14.3729 92.0865C16.2409 92.0865 19.0947 90.8931 19.8731 89.8034C19.4061 87.8317 15.0474 87.7279 13.1795 88.1949C9.59917 88.9213 11.4672 92.346 14.3729 92.0865ZM100.456 90.7374C104.088 91.8789 112.131 85.808 105.696 83.8363C102.687 84.0957 91.8941 91.5157 100.456 90.7374ZM58.1148 90.7374C67.4028 90.2704 61.9026 86.742 56.9732 86.2231C51.3693 86.4825 53.9637 91.1525 58.1148 90.7374ZM31.1329 87.209C33.6754 87.1571 39.1755 79.9965 35.3877 78.5955C33.2603 79.2701 29.213 85.6005 31.1329 87.209ZM11.5191 82.7466C12.9719 82.7985 18.8872 82.1758 16.8116 80.1003C12.7644 76.4162 2.80183 81.5532 11.5191 82.7466ZM77.521 82.5909C80.3229 83.4211 89.144 77.6616 83.9551 76.2606C82.6579 76.1049 75.7049 81.2418 77.521 82.5909ZM98.0688 79.5814C100.508 79.8408 105.074 73.9775 104.088 71.5387C103.361 69.2556 100.923 68.7368 99.7292 71.1236C98.9509 72.9916 95.6819 78.855 98.0688 79.5814ZM58.7893 78.5955C69.167 79.5814 52.7703 68.9443 53.4449 76.4162C54.2751 77.9729 57.1289 78.4399 58.7893 78.5955ZM27.6044 77.7653C33.8829 75.2228 32.3782 63.0809 27.9158 70.3453C27.3969 72.6803 25.5289 76.2606 27.6044 77.7653ZM77.5729 70.7604C80.1673 70.5528 82.7098 70.6047 84.7853 68.3216C86.7052 67.0244 85.2524 64.0149 84.059 64.3781C81.9834 64.43 74.5634 69.567 77.5729 70.7604ZM19.1466 70.2415C21.3778 68.7367 19.6655 63.6517 18.991 61.8875C18.3683 59.9157 13.9578 58.5666 14.4248 61.6799C14.8399 64.6895 16.6041 68.3735 19.1466 70.2415ZM63.1998 66.765C66.0018 65.3121 58.1666 60.9016 57.0251 60.9535C50.9542 62.2507 59.6714 67.4914 63.1998 66.765ZM78.8182 60.0195C83.4881 61.1092 90.5969 52.6514 84.3703 53.5335C82.658 54.0523 75.4973 59.5006 78.8182 60.0195ZM65.6386 55.2977C69.8934 55.1939 62.6291 48.189 60.5016 48.3965C53.1854 48.0852 62.3178 55.9203 65.6386 55.2977ZM82.6579 48.8635C84.941 48.5522 89.9742 46.2691 89.0921 42.7926C87.3279 39.5755 76.7946 49.3305 82.6579 48.8635ZM69.3745 43.7266C72.9548 42.9483 66.6244 35.8395 64.497 35.3726C59.1006 35.7358 66.6763 43.7266 69.3745 43.7266ZM79.2852 36.6179C82.5023 35.7358 88.4176 28.212 83.0731 26.5515C80.0635 28.0044 77.521 33.764 79.2852 36.6179Z" fill="#6060BF"/>
<path d="M7.62741 80.9305C7.73118 79.5295 8.66515 79.1663 9.80669 78.7512C12.0898 77.8691 14.2172 78.2323 16.189 79.4257C17.3824 80.1522 18.4721 80.9305 19.9769 80.6711C20.9108 80.4635 22.3118 81.19 21.6891 79.6333C21.1184 77.8691 20.5476 76.053 20.0287 74.2369C19.7693 73.4067 19.873 72.2652 19.3023 71.5906C18.057 70.1377 16.7079 68.7887 15.6182 67.1801C14.5286 65.7272 12.2455 60.0195 14.6842 59.1893C16.2409 58.5148 17.4862 59.2931 18.6277 60.2271C20.7551 62.1469 21.1702 66.2461 20.7032 68.9443C20.3919 70.0858 20.3919 71.2793 20.5995 72.4727C21.4816 75.5341 22.675 78.4918 23.6609 81.5013C23.7647 81.7088 23.8685 82.1239 24.1279 81.8126C27.5525 77.7134 24.6468 71.383 29.0573 67.8027C30.0432 67.0244 31.0809 67.4395 31.5998 68.166C33.1045 70.5009 32.1706 74.652 30.0431 76.52C28.7459 77.6616 27.0855 78.4399 26.3072 80.1003C25.5808 81.605 23.9722 82.7985 24.8543 84.7702C25.6845 86.5863 26.411 88.4543 27.1374 90.2704C29.161 87.8317 30.0432 86.3788 30.7177 83.1617C31.3404 81.3975 32.5857 80.1522 33.7791 78.8031C34.4537 78.0248 35.2839 77.7653 36.166 78.0767C39.0198 79.5295 36.2698 83.3174 35.1282 85.0816C34.6093 86.0156 33.6234 86.8977 32.897 87.0014C30.5101 87.2609 29.7837 89.3364 28.3309 90.6336C28.0195 90.8931 27.7601 91.5676 27.8638 91.8789C28.9535 94.4734 29.8875 97.1716 31.2366 99.6103C31.3404 99.5584 31.496 99.5065 31.5479 99.4028C32.3781 97.7942 34.2461 96.8083 34.3499 94.6809C34.4018 94.0064 34.5574 93.3318 34.9206 92.7091C35.9584 91.1006 37.982 85.6523 40.4208 87.0533C41.5105 87.6241 42.0813 88.61 42.0294 89.9072C41.9256 92.7092 39.9538 94.3177 38.0858 95.8744C36.7886 96.964 34.6612 96.7046 33.7791 98.4688C33.2084 99.6622 31.2366 100.129 32.43 102.257C33.4678 104.125 34.4536 106.096 35.232 108.12C35.8546 109.832 37.0481 111.337 37.9302 112.946C39.3831 115.54 40.784 118.186 42.7039 120.625C43.4822 118.083 44.053 115.592 45.0907 113.309C45.454 112.427 45.6615 111.441 45.6096 110.455C44.4681 106.356 44.3125 101.738 47.9965 98.7282C53.5486 93.3318 54.3269 108.898 47.0625 111.7C46.5436 111.908 46.4399 112.531 46.2842 112.997C45.5578 115.229 44.7794 117.46 44.2087 119.743C43.9492 120.625 42.9114 121.455 44.053 122.597C45.3502 123.894 46.2842 125.451 47.4257 126.852C48.7229 128.46 50.0201 130.069 51.3173 131.677C51.473 131.833 51.6806 132.3 51.94 131.781C52.1476 131.21 52.5627 130.691 52.6665 130.173C53.1854 127.371 54.5863 124.828 55.1571 122.078C55.3646 120.988 55.9873 120.002 55.5203 118.757C53.808 114.398 55.2609 109.002 58.8411 105.941C59.4119 105.474 59.9309 104.488 60.9686 104.799C62.8885 105.37 62.629 107.186 62.8885 108.587C63.2517 113.101 61.2799 117.875 57.5439 120.573C57.2326 120.781 56.8694 120.677 56.6619 121.248C55.4165 124.776 54.6382 128.46 53.1334 131.885C51.6287 133.96 56.6619 136.866 57.7515 138.527C59.2044 140.187 60.761 141.744 62.4215 143.508C63.0441 141.017 63.6668 138.89 64.0819 136.762C64.3414 135.569 65.1716 134.427 64.6008 133.078C62.5253 128.408 63.6668 122.545 68.233 119.847C68.8556 119.38 69.5821 119.068 70.0491 120.054C71.6057 123.635 70.7236 132.092 66.8838 134.116C66.2612 134.427 65.898 134.635 65.7423 135.258C65.1715 137.541 64.497 139.824 64.03 142.107C63.8743 142.885 62.8885 143.715 64.1338 144.546C65.2234 145.272 66.2612 146.154 67.1952 147.088C76.7427 155.65 89.3515 159.697 101.649 162.551C99.8329 160.787 99.0027 158.555 97.3942 156.843C96.4083 155.753 95.7857 154.352 95.0073 153.055C91.5308 147.555 91.894 145.635 84.9929 144.338C83.7994 143.923 82.5023 145.013 81.2569 145.013C77.7804 145.064 74.9784 143.663 72.851 140.862C72.4878 140.395 71.9689 139.616 72.384 139.201C75.7049 136.295 81.0494 137.904 83.9551 140.758C84.5259 141.329 84.6297 142.314 85.2523 142.626C86.5495 143.248 87.8986 143.663 89.4034 144.234C84.0589 134.842 79.2852 125.087 75.653 114.865C74.3558 110.403 72.7992 105.837 72.1246 101.219C71.6576 98.6244 70.8793 96.0819 70.9312 93.3837C70.9312 92.9167 70.9311 92.0346 69.9971 91.7752C68.7518 91.4638 67.6103 90.8412 66.4169 90.478C65.5348 90.1666 64.6527 89.2845 63.7187 89.7515C60.761 91.412 54.5345 92.4497 52.9778 88.61C52.7184 87.5203 53.341 86.6901 54.3269 86.2231C58.0628 84.407 61.4875 86.8458 64.6008 88.5581C66.365 88.9732 68.0254 89.5959 69.6858 90.2704C69.9971 90.3742 70.2047 90.8412 70.568 90.6336C70.9312 90.4261 70.516 90.1147 70.4641 89.9072C69.9453 88.4543 70.3604 82.7466 69.2708 82.1239C66.2612 81.2418 63.9262 78.4917 60.5016 79.0625C58.4261 79.5814 52.2514 78.6474 52.5108 75.8973C52.874 71.5906 58.0109 72.9916 60.3978 74.7558C61.7988 75.586 62.4733 77.1427 63.7705 77.9729C65.2234 78.855 66.832 79.5295 68.3367 80.3079C69.1151 80.6711 69.8415 81.2418 69.6858 79.5295C69.4264 76.8832 69.4783 74.2369 69.4264 71.5387C69.4264 70.8123 69.5821 70.034 68.5962 69.7226C66.5725 69.1519 65.3272 66.9206 62.629 67.2839C59.9308 67.6471 57.3883 66.6612 55.3647 64.5857C52.407 62.1988 55.3646 58.9817 58.2704 60.5384C60.294 61.4205 62.1101 62.8215 63.4592 64.5857C63.8224 65.0527 63.9781 65.7272 64.7046 66.0904C66.3131 66.8688 67.8179 67.9065 69.3226 68.8405C69.5302 66.4018 69.8934 64.0668 70.1528 61.6281C70.2566 60.4865 70.8274 58.878 70.3085 58.2553C69.3226 57.0619 68.181 55.5571 66.1055 55.7647C63.2517 56.5949 55.4684 51.8212 57.1289 48.8116C59.2044 45.387 65.3272 49.6938 66.3131 52.3919C66.7282 53.1703 66.832 54.1561 67.8179 54.6231C68.7518 55.0901 69.5821 55.7647 70.4123 56.3873C70.516 56.4392 70.3604 56.8024 70.6717 56.6987C71.6057 54.675 71.7614 52.1844 72.4359 50.057C72.7473 48.9673 73.3699 48.0852 72.2284 46.9437C70.8274 45.4908 69.5302 44.3492 67.5065 43.6747C64.8083 42.7407 63.3035 40.1982 61.9544 37.8113C60.761 36.1509 62.7328 33.764 64.6527 34.5424C70.9831 37.033 69.2188 43.052 73.4737 46.4767C74.1482 44.8681 74.7709 43.1558 75.4973 41.4954C76.5351 39.1604 78.1955 37.0849 78.1436 34.231C78.0918 31.481 79.0257 28.8865 81.1012 26.811C83.4362 23.9052 86.7571 26.9666 85.875 29.9243C84.7335 33.4527 82.4504 36.0471 78.922 37.4481C78.5069 37.6037 78.2993 38.0189 78.0398 38.6934C76.2237 43.0001 74.6671 46.9955 73.5774 51.4061C75.9124 49.4862 79.3371 49.7975 80.7381 46.4248C81.6202 44.0379 84.0589 42.7407 86.342 41.6511C87.3278 41.1841 88.3656 40.7171 89.3515 41.7029C92.1016 45.1794 85.6156 49.3824 82.5023 49.4862C81.7239 49.59 80.9975 49.0192 80.2192 49.3824C78.3512 50.3164 76.4832 51.1985 74.6671 52.1844C74.2001 52.4438 73.4218 51.7174 73.2142 52.807C72.7473 55.7128 71.3462 58.4629 71.7614 61.4724C72.1765 61.3167 72.6435 61.2129 73.0586 61.0054C74.3558 60.1752 76.12 60.2271 77.054 58.8261C78.7663 56.2835 80.9456 54.1561 83.7475 52.8589C85.8231 51.4579 88.1581 53.5335 87.1722 55.7647C84.3184 62.0432 78.455 58.9298 73.7331 62.095C72.851 62.6139 71.3462 62.4064 71.2943 64.0668C71.2425 66.1423 71.0349 68.2179 70.9312 70.2934C70.8793 71.2274 70.516 72.6284 72.2802 71.3312C73.2661 70.6566 74.7709 70.501 75.4454 69.6707C77.2096 67.4396 82.9173 61.3686 85.7712 64.3263C88.7288 68.5292 80.6862 71.8501 77.5729 70.968C76.0162 70.1896 73.785 72.1095 72.2802 72.6803C71.7614 72.9397 70.9312 73.251 70.9312 73.5624C71.0349 77.1946 71.2425 80.8267 71.3982 84.5627C73.1624 83.0061 75.3417 82.6947 76.7946 80.6711C78.4031 78.4918 80.5305 76.7276 82.9692 75.5341C84.3183 74.8077 86.4458 75.8973 85.9269 77.6097C85.6156 79.6333 84.007 80.4635 82.5023 81.3456C79.7522 82.9023 76.2238 82.3834 73.7331 84.7184C73.1105 85.2891 71.7095 85.341 71.7095 86.2231C71.917 91.5157 73.0067 96.8083 73.9407 101.997C75.186 107.394 76.2238 113.101 78.7144 118.031C80.4267 112.323 82.4504 106.719 84.6816 101.271C85.2004 99.8697 86.2901 98.6763 84.474 96.964C80.9456 94.4734 75.9643 94.4734 74.4076 89.8034C73.9925 88.5062 74.5115 87.4165 75.5492 86.742C77.6248 85.5486 80.6861 87.676 82.139 89.2845C83.3843 90.8412 84.3184 92.294 84.3184 94.2658C84.3184 95.7187 85.7193 96.2376 86.2382 97.3272C89.6628 92.0346 91.2195 85.6005 95.3705 80.723C95.9932 79.8927 96.4083 79.1144 96.3046 78.0248C96.6159 75.586 97.5498 73.251 98.5357 70.968C100.144 67.1282 104.347 67.8028 105.074 71.7982C105.281 75.1709 101.805 78.388 99.366 79.5295C98.5358 79.8927 97.2385 79.6852 96.7196 80.2559C94.4884 83.0579 92.9837 86.9496 91.3752 90.011C91.5827 91.5157 92.3091 89.9072 92.828 90.1147C92.9318 90.1666 93.0875 90.1666 93.1913 90.1147C94.229 89.4921 95.6819 89.9072 96.4602 88.8175C98.4319 86.2231 105.074 80.3078 108.083 83.7325C108.965 84.8221 108.965 86.3269 108.343 87.4684C106.786 90.3223 102.998 91.7233 100.248 91.0487C96.9791 90.2185 94.229 91.1525 91.3233 92.1384C90.9082 92.2941 90.3893 92.0346 90.078 92.7091C88.8845 95.6668 87.5354 98.5206 86.2382 101.53C88.2618 100.907 90.3374 100.389 92.1535 99.1433C94.5403 97.1197 104.088 91.3082 104.814 97.0159C103.673 102.257 96.7715 103.398 92.4648 101.738C91.8421 101.53 91.3233 100.908 90.6487 101.323C89.6109 101.945 88.4694 102.153 87.3278 102.568C86.5495 102.879 85.3561 102.672 85.1486 104.021C84.2146 107.238 82.8655 110.403 81.8277 113.62C81.1013 115.644 80.9456 117.927 79.389 119.587C79.3371 119.639 79.3371 119.847 79.389 119.951C83.5919 129.913 88.4694 139.564 94.3328 148.697C95.3705 144.753 97.9131 139.097 96.8234 135.361C96.1489 134.272 95.5781 132.715 94.4366 132.352C90.4931 130.951 86.7052 126.8 86.7571 122.441C86.809 121.974 86.7052 121.352 87.5354 121.092C88.8845 120.677 89.8704 121.248 90.8563 121.922C93.762 123.79 96.1489 125.97 96.3564 129.809C96.4083 130.847 95.4224 131.989 96.564 133.026C97.2385 133.649 97.6017 134.635 98.2244 135.361C99.2622 133.441 99.781 131.262 100.611 129.239C100.871 128.564 101.441 127.422 101.234 127.267C99.2103 124.932 100.871 118.238 102.583 115.903C103.413 114.658 104.71 114.087 105.956 113.413C107.045 112.53 108.187 112.79 108.602 113.88C111.145 118.498 107.72 126.852 102.635 128.253C102.012 128.305 100.974 131.781 100.767 132.404C99.9886 135.258 98.7952 137.956 98.1206 140.81C98.3282 140.81 98.5357 140.913 98.6914 140.81C99.6773 140.239 101.493 140.913 102.272 140.135C103.258 137.904 105.593 137.748 107.409 137.074C109.64 136.192 112.027 136.036 114.258 137.489C115.244 138.111 116.126 139.668 115.451 140.446C112.857 144.027 108.55 144.494 104.555 142.989C100.975 141.225 102.427 141.64 98.5876 141.796C96.9272 142.107 96.7715 146.102 96.1489 147.503C95.7856 148.697 94.9036 150.046 96.0451 151.551C99.0546 155.65 101.753 160.164 104.71 164.263C104.97 163.485 105.904 162.188 105.748 161.461C104.192 156.999 104.762 152.952 108.187 149.579C108.913 148.852 109.796 147.659 111.093 148.126C114.31 150.461 112.805 155.857 111.248 158.867C110.418 160.32 109.484 161.617 107.824 162.084C106.578 162.447 105.333 164.99 106.06 166.079C108.498 169.504 110.989 172.928 113.48 176.353C116.074 179.778 118.513 183.254 120.9 186.835C121.782 188.443 124.999 191.66 124.013 193.476C123.494 193.839 123.183 193.269 122.819 192.854C119.706 189.066 115.607 186.264 110.989 184.759C109.536 184.136 108.239 182.528 106.527 184.084C105.748 184.759 104.555 184.915 104.451 186.419C104.347 187.769 103.673 189.118 102.739 190.052C100.041 192.698 96.097 195.085 92.2054 194.41C89.6628 193.943 91.9978 192.594 92.3091 191.141C94.5922 185.849 98.1725 183.617 103.984 184.084C104.659 183.773 105.281 183.254 106.06 182.891C100.974 180.919 95.2149 179.155 89.9223 178.584C89.0402 179.726 87.5354 180.556 87.6392 182.372C88.1062 187.353 83.8513 190.882 80.0116 193.061C78.9738 193.736 77.3653 194.462 76.3275 193.424C75.3417 192.49 75.7568 190.934 75.8605 189.585C76.0162 187.561 77.3134 186.16 78.2474 184.551C79.5965 182.165 81.6721 180.764 84.3184 180.504C89.0402 180.867 86.6014 178.74 89.0921 178.584C88.3656 178.325 88.0543 178.169 87.7949 178.169C85.2004 178.014 82.7098 177.028 80.0116 177.08C78.7663 177.08 77.4691 176.976 76.3794 176.509C73.1105 175.108 71.3981 177.028 69.8934 179.622C69.9972 184.863 67.5065 190.259 62.2658 191.972C61.6951 192.179 61.1243 192.231 60.5016 192.231C58.8412 192.127 59.6195 191.141 59.7233 190.259C59.9308 187.353 60.3978 185.174 62.2658 182.839C62.9923 181.438 64.1857 180.66 65.5348 179.933C66.5206 179.415 67.766 179.726 68.5443 179.155C69.4783 178.429 70.049 177.235 70.7755 176.249C70.983 175.99 70.8793 175.782 70.568 175.73C68.0773 175.263 65.5348 174.796 63.0442 174.278C60.6054 173.759 58.0628 173.395 55.676 172.669C52.7702 171.735 51.7325 171.943 49.9683 174.433C49.0343 175.782 48.0484 176.924 47.7371 178.792C45.7135 190.519 33.4159 188.495 41.3548 179.415C42.9115 178.221 44.7276 177.495 46.2842 176.405C48.2041 175.056 49.6569 173.032 51.2136 171.372C49.1899 170.542 47.2182 169.711 45.2464 168.881C44.5719 168.622 43.6379 168.051 43.2747 168.31C41.8737 169.244 40.6802 170.438 39.383 171.476C38.9679 171.787 38.5528 171.995 38.6047 172.669C38.6566 173.707 38.034 174.589 37.6708 175.523C36.5292 178.325 33.1045 182.839 29.7837 180.712C27.2412 178.273 31.0809 173.914 33.2602 172.669C36.7887 171.787 39.1236 170.49 41.5624 167.792C41.8218 167.532 41.6661 167.376 41.3548 167.169C39.6944 166.287 37.8264 165.82 36.2697 164.678C35.9065 164.419 35.4915 164.056 35.0245 164.419C33.2603 165.664 30.7696 165.872 29.8356 168.31C29.1611 170.023 27.7082 171.164 26.5148 172.513C24.9581 174.278 22.4156 175.056 20.4438 173.966C19.2504 173.292 18.6277 171.995 19.0947 170.749C20.2881 167.221 24.6986 165.924 28.1752 165.716C28.6941 165.716 29.1611 166.183 29.8356 165.716C31.1847 164.782 32.6894 164.056 34.1942 163.225C32.2743 161.669 30.1469 160.008 28.3309 158.348C25.7883 159.282 23.142 160.008 21.1702 162.291C19.3542 164.626 14.788 167.688 12.0898 164.886C11.3634 163.952 11.2596 162.655 11.8822 161.617C14.1134 158.14 18.6278 157.621 22.3118 158.815C23.5571 159.126 25.1138 157.985 26.5148 157.57C27.5006 157.258 26.8261 156.999 26.6185 156.636C26.3072 156.169 25.944 155.805 25.477 155.494C21.4816 153.367 16.8636 151.81 14.788 147.399C11.7266 139.616 25.0619 139.876 24.9581 153.73C28.5903 157.258 32.2743 160.112 36.4773 163.174C35.1282 160.89 35.232 158.504 33.364 156.324C31.4441 154.041 29.3686 151.602 29.2648 148.23C29.2129 146.465 29.4205 144.961 31.3923 144.597C34.1424 144.286 36.0622 148.489 36.2697 150.772C36.3735 152.692 36.7367 154.664 35.699 156.48C35.5433 156.739 35.5433 156.895 35.699 157.258C36.3216 158.763 36.7368 160.372 37.4113 161.824C37.8783 162.81 37.9302 164.107 39.1236 164.678C42.0293 165.924 44.8832 167.325 47.9446 168.31C47.737 167.688 47.5814 167.065 47.2182 166.546C46.388 164.782 46.2842 162.551 44.3124 161.409C43.7935 161.098 43.3785 160.631 43.119 160.164C41.718 157.985 39.1755 151.81 42.4445 150.409C43.8973 149.89 45.0907 150.772 46.1285 152.069C47.9446 154.301 48.0484 156.739 47.8927 159.334C47.7889 160.683 46.5955 161.824 47.2701 163.277C47.8928 164.574 48.4635 165.82 48.9824 167.117C49.3456 167.999 49.4494 169.089 50.4353 169.452C53.2891 170.334 56.1948 171.32 59.1006 171.995C58.8411 171.164 58.2704 170.334 58.2185 169.556C57.7515 167.221 56.4543 165.353 55.1571 163.485C53.7042 161.409 52.3033 159.386 52.407 156.687C52.1995 154.612 54.4307 153.367 56.0911 154.768C57.544 155.805 57.8553 157.466 58.3742 159.022C58.945 160.787 59.2044 162.551 58.7374 164.419C58.6336 164.99 57.7515 165.301 58.3223 166.183C58.9968 167.273 59.2044 168.622 59.7752 169.763C60.2422 170.697 60.2422 171.995 61.3318 172.461C67.9216 173.811 74.7709 174.9 81.4645 175.834C83.1768 175.938 84.8891 176.094 86.4976 176.664C86.6533 176.716 86.809 176.664 87.0165 176.664C85.5637 174.537 84.5778 171.735 81.672 170.905C78.9219 169.919 76.4832 167.792 74.7709 165.508C73.7331 164.263 73.6294 162.603 73.2142 161.046C72.9548 160.06 73.785 158.192 74.4596 158.4C78.0399 159.022 80.6861 161.669 82.7098 164.523C83.8513 166.027 84.6297 167.792 84.8891 169.66C84.9929 170.282 84.6297 170.957 85.1486 171.579C86.0826 172.721 86.809 174.07 87.7949 175.212C88.3656 175.834 88.4175 176.872 89.6628 177.028C94.4884 177.443 99.0546 179.103 103.673 180.556C109.744 182.476 115.918 184.811 121.003 188.754C121.055 187.769 120.173 186.99 119.602 186.368C115.659 181.438 112.027 176.353 108.291 171.268C106.734 169.193 105.074 167.221 103.673 165.041C102.946 163.952 102.116 163.122 100.974 163.07C88.0024 161.357 75.4454 155.753 65.4829 147.296C62.9404 145.272 60.7611 142.678 58.1666 140.862C55.8836 140.758 53.6524 141.225 51.4212 141.432C50.3315 141.536 49.0862 141.38 48.4116 142.678C47.7371 143.975 43.4822 145.531 42.0813 145.116C29.9913 142.366 41.718 135.776 47.789 139.097C48.5673 139.461 48.8267 140.862 50.1239 140.239C50.5391 140.031 51.0579 140.031 51.5249 139.979C53.1853 139.772 54.8457 139.616 56.5062 139.461C56.9213 139.409 56.6619 139.253 56.5581 139.097C54.275 136.607 51.7325 134.375 49.7088 131.625C49.5013 131.366 49.0862 130.899 48.8786 130.951C47.1663 131.314 45.454 131.055 43.6898 131.158C42.652 131.21 41.1472 131.055 40.6284 131.677C38.1896 134.22 33.5716 135.102 30.4583 133.753C24.1279 131.003 30.3026 127.838 34.0904 127.111C36.2698 126.696 39.3831 127.526 40.5765 129.394C40.7322 129.654 41.0954 130.069 41.3548 130.017C43.4303 129.757 45.5577 129.809 47.6852 129.809C48.0484 129.809 48.1522 129.809 47.8408 129.446C47.0106 128.46 46.388 127.319 45.454 126.437C43.7417 124.776 43.3265 121.819 40.4208 121.403C39.4349 121.248 38.2415 121.092 37.4632 121.715C36.0622 122.856 34.4018 123.531 32.7414 123.79C30.5621 124.465 21.1703 122.026 25.1657 119.068C26.4629 118.083 28.0195 117.46 29.6281 117.252C37.1 115.644 36.4254 120.885 40.4727 119.795C37.9302 115.955 35.7509 111.856 33.6234 107.757C33.2083 106.875 32.3781 107.809 31.7555 107.809C30.7177 107.757 29.3167 107.497 28.6422 108.016C25.8921 110.196 23.0383 111.545 19.458 111.181C17.59 110.974 16.5522 109.313 17.5899 107.809C19.0428 105.889 22.8825 105.422 25.1137 105.837C27.8119 106.563 30.4582 107.134 33.1564 106.304C30.6658 104.073 31.3404 97.9499 26.8261 98.9357C26.0478 99.1433 25.0619 98.7282 24.3354 99.1433C21.8448 101.323 15.722 104.228 14.0097 99.8698C13.3351 95.9262 18.991 96.0819 21.5335 96.7046C22.9864 96.964 24.1798 98.2093 25.7883 97.898C26.5666 97.6904 28.6421 98.2093 28.7459 97.2234C28.1233 95.6149 27.4487 94.0064 26.8261 92.3978C26.2034 90.8931 25.6845 89.2845 23.5052 89.8034C22.7269 89.7515 21.1702 89.2845 20.6514 89.6996C18.7834 91.6714 14.788 92.8129 12.2974 91.8789C10.585 91.5157 9.80673 88.8175 11.4672 87.8317C13.2832 86.7939 15.4106 86.5863 17.2786 87.3647C18.0051 87.8835 26.1515 89.7515 24.9581 87.7798C24.5949 86.6901 24.2836 85.4967 23.7128 84.5108C23.0901 83.4211 23.609 81.2418 21.2221 81.6051C19.9768 81.8126 18.6796 80.9305 17.4343 81.6569C15.5663 83.3174 7.26419 84.3551 7.62741 80.9305ZM19.5617 67.3358C19.5098 64.6895 19.0429 60.2789 15.5663 60.3827C13.3351 60.8497 16.9673 67.5952 18.1088 68.4773C18.472 68.8924 18.9391 70.034 19.2504 69.7226C19.7693 69.1519 19.5617 68.166 19.5617 67.3358ZM27.345 76.8313C27.345 77.0389 27.5006 77.4021 27.812 77.1426C29.8356 75.4822 31.2885 73.4586 31.4442 70.6566C31.3923 69.8783 31.1847 68.7887 30.2507 68.7368C27.9676 68.5292 27.0855 75.119 27.345 76.8313ZM31.4442 86.6382C33.2084 86.275 37.8264 81.0343 35.5952 79.1144C33.0008 80.3597 31.7036 83.6806 31.0809 86.3788C30.9771 86.7939 31.1847 86.6901 31.4442 86.6382ZM35.3358 96.3413C37.7226 95.7187 42.185 91.4638 40.6284 88.9732C40.3689 88.5062 40.0576 88.0911 39.3312 88.0911C38.7604 88.0911 38.8123 88.5581 38.6566 88.7656C37.0481 90.9968 35.3358 93.4356 35.3358 96.3413ZM50.6947 99.6622C49.5532 103.242 48.4635 106.667 47.322 110.196C50.4353 107.342 51.7844 103.969 50.6947 99.6622ZM46.5955 108.276C47.7371 105.007 48.8267 101.79 49.9164 98.6763C47.2701 99.9735 45.6096 104.592 46.5955 108.276ZM57.6478 118.913C60.5016 115.851 62.4734 111.233 61.3318 107.03C60.2422 110.196 59.1525 113.464 58.0628 116.733C57.8553 117.408 57.4402 118.083 57.6478 118.913ZM56.6619 117.2C57.9072 113.672 59.1525 110.144 60.3978 106.511C56.9213 108.691 55.5203 115.021 56.6619 117.2ZM69.3745 120.936C68.2848 125.295 67.3508 129.239 66.3131 133.39C69.6339 129.757 69.8415 125.71 69.3745 120.936ZM65.5348 131.833C66.5206 128.253 67.4027 124.932 68.3367 121.559C64.964 124.153 64.6527 127.682 65.5348 131.833ZM82.8136 143.3L74.4076 140.602C75.9124 143.3 81.1532 144.494 82.8136 143.3ZM73.4218 139.253L83.1768 142.003C81.9315 139.72 78.1955 138.63 73.4218 139.253ZM62.5771 88.8694C60.1903 87.1052 56.8694 85.9118 54.5863 87.4166C54.3269 87.5722 54.1193 88.0392 54.1712 88.3505C55.2609 91.1525 60.8648 90.2704 62.8885 89.1289C62.7328 89.0251 62.6809 88.9732 62.5771 88.8694ZM60.6572 76.4681C59.36 75.2747 57.7515 74.6001 56.0911 74.2369C53.9637 73.9775 52.9259 76.6238 55.3128 77.2464C56.9213 77.921 58.6855 78.2323 60.3978 78.0767C60.9167 77.9729 61.7469 78.388 61.9026 77.7134C61.9026 77.4021 61.0723 76.8832 60.6572 76.4681ZM63.4073 65.9348C62.2658 64.3781 57.0251 59.6563 55.4684 62.2507C55.2609 62.7696 55.676 63.0809 55.9873 63.3922C57.9072 65.5716 60.4497 66.1423 63.1998 66.1942C63.3554 66.2461 63.6149 66.1942 63.4073 65.9348ZM65.898 53.4297C65.0159 51.1985 60.8129 47.6182 58.4261 49.1749C57.3883 51.7174 64.3413 55.5052 66.5725 54.675C66.365 54.2599 66.1056 53.8448 65.898 53.4297ZM69.3226 41.0284C68.0254 39.0047 66.6244 36.566 64.1857 35.8396C62.8885 36.0471 62.8366 36.8773 63.3036 37.6038C64.5489 39.4199 65.5866 41.4435 67.6622 42.4813C69.6858 43.8304 70.8274 43.1039 69.3226 41.0284ZM79.2852 36.099C81.8796 35.0093 87.1722 29.3535 83.3325 27.0185C81.9834 27.7969 80.8418 28.7308 80.3748 30.1837C79.6484 32.0517 79.0257 33.9716 79.2852 36.099ZM83.2287 48.2409C85.5117 47.5144 87.5354 46.3729 88.6769 44.1417C88.9364 43.4671 88.6251 42.4813 87.743 42.5332C86.1863 43.1039 84.6297 43.8822 83.4362 45.2313C82.9692 45.7502 82.2947 45.9059 81.9834 46.6323C81.7758 47.1512 81.3088 47.5663 81.2569 48.189C81.9834 48.2409 82.6579 48.4484 83.2287 48.2409ZM78.5068 59.5006C85.6155 59.9157 88.4175 52.2881 84.3702 54.1561C81.8796 55.2458 79.7522 57.1657 78.3512 59.4487L78.5068 59.5006ZM77.6248 70.2415C78.6106 70.1377 79.5446 69.9302 80.5305 70.034C82.0353 70.1377 85.2523 67.8028 85.2523 66.6093C85.2004 64.8451 84.1627 64.6895 83.073 65.1565C80.7899 66.2461 78.1955 67.7509 77.3134 70.1896C77.4172 70.2415 77.521 70.2415 77.6248 70.2415ZM79.337 81.9164C88.4694 79.2701 85.5117 71.7463 77.5209 82.072C78.1436 82.0201 78.7663 82.072 79.337 81.9164ZM82.0353 90.9968C81.0494 89.2845 75.7049 85.9118 75.7049 89.9072C76.2756 91.2044 77.2615 92.294 78.5587 92.9686C80.0116 93.695 81.5683 94.2658 83.0212 94.9922C83.4881 95.1998 83.4362 95.0441 83.4881 94.6809C83.5919 93.2281 82.8136 92.0346 82.0353 90.9968ZM97.9131 79.0625C100.248 79.2701 104.347 74.0293 103.621 71.6944C100.715 66.1423 98.1206 76.2606 97.6536 78.5436C97.7574 78.7512 97.5499 79.0625 97.9131 79.0625ZM98.2763 90.1666C101.597 90.3742 106.527 90.3223 107.461 86.275C106.89 81.0862 98.7952 87.9354 97.4461 89.8553C97.7574 90.0109 98.0168 90.1666 98.2763 90.1666ZM92.7242 100.752C95.0073 103.242 103.309 101.426 103.413 97.5348C103.517 94.6809 96.6677 97.8461 95.3705 98.8839C94.8517 99.2471 94.2809 99.5584 93.762 99.9216C93.3988 100.129 92.6205 100.285 92.7242 100.752ZM88.158 123.116C87.7429 125.762 91.3751 129.965 93.6063 131.055C91.9978 128.356 89.9741 125.866 88.158 123.116ZM88.9364 122.597C90.9081 125.347 93.1913 127.734 94.9555 130.795C95.4744 127.993 92.6204 124.205 88.9364 122.597ZM103.206 127.163C103.361 127.163 103.725 127.215 103.776 127.111C106.267 123.686 109.588 119.639 107.668 115.125C106.163 118.913 104.866 122.804 103.154 126.54C103.102 126.696 103.206 126.904 103.206 127.163ZM102.168 125.606C103.776 121.974 105.022 118.394 106.682 114.762C104.036 116.266 102.635 118.342 102.324 121.144C102.324 122.389 101.493 124.672 102.168 125.606ZM112.701 141.588C113.324 141.173 114.102 140.913 114.465 140.187C111.404 140.187 108.343 141.173 105.281 141.536C105.074 141.588 104.814 141.432 104.555 141.38C107.201 142.626 109.951 143.56 112.701 141.588ZM104.399 140.395C107.201 139.928 110.003 139.876 112.753 139.149C113.22 139.045 113.843 139.409 114.206 138.786C113.116 138.423 112.39 137.748 111.145 137.852C108.862 138.267 105.852 138.423 103.932 140.343C104.088 140.343 104.243 140.395 104.399 140.395ZM107.616 161.202C111.145 158.815 112.597 153.989 111.3 149.942C110.314 153.107 109.329 156.22 108.291 159.334C108.083 159.956 107.409 160.423 107.616 161.202ZM106.371 159.334C106.371 159.489 106.475 159.645 106.578 159.749C108.239 156.22 108.913 152.64 110.781 149.164C107.253 151.654 105.904 155.338 106.371 159.334ZM94.1771 190.882C94.1771 190.934 94.1771 190.986 94.1771 191.089C97.1867 189.377 99.7291 187.353 102.687 185.485C98.9508 185.278 95.5781 187.509 94.1771 190.882ZM93.3988 193.528C98.2244 192.542 101.909 190.882 103.776 186.368L93.3988 193.528ZM85.3561 181.801C82.5542 182.009 80.738 183.669 79.2852 185.952C78.2474 187.613 76.8983 189.17 77.3134 191.401C80.0635 188.08 82.9693 185.018 85.875 181.957C85.7193 181.905 85.5118 181.801 85.3561 181.801ZM86.6533 183.462C86.6533 183.358 86.6533 183.254 86.6533 183.202C83.7995 186.264 80.9975 189.273 78.2993 192.438C81.8277 191.297 86.7571 187.665 86.6533 183.462ZM61.2799 189.585C63.4074 186.419 66.1055 183.877 67.8179 180.608C64.9121 180.816 61.3318 185.07 61.2799 189.585ZM64.6527 187.457C63.9262 188.391 63.4073 189.481 62.4215 190.259C62.3177 190.311 62.3177 190.519 62.2658 190.622C66.3131 189.74 68.4924 185.382 68.8556 181.594C67.766 183.773 66.1056 185.537 64.6527 187.457ZM46.6474 177.962C43.586 179.051 40.9397 181.179 40.2133 184.448C40.1095 185.07 40.3689 185.537 40.8878 185.797C41.3548 186.056 41.8218 185.797 42.185 185.589C44.9351 183.981 46.1285 181.023 46.6474 177.962ZM36.9443 172.773C33.6753 173.862 31.1847 175.523 30.4064 178.999C30.4583 180.037 31.7554 180.504 32.6375 179.933C35.1801 178.325 36.4254 175.782 37.3594 173.136C37.5151 172.721 37.2037 172.721 36.9443 172.773ZM28.227 167.065C25.944 166.806 21.3259 169.037 20.5476 171.372C20.5476 173.188 21.9486 173.914 23.5052 173.084C25.8921 171.891 27.5007 169.919 28.7979 167.688C29.1611 167.169 28.4865 167.117 28.227 167.065ZM21.2741 160.268C19.3023 158.971 12.6606 160.735 13.1276 163.589C14.4248 166.858 18.8872 162.966 20.3919 161.565C20.7551 161.202 21.6373 160.89 21.2741 160.268ZM21.1184 145.791C19.9249 144.079 17.3824 143.404 15.9814 144.857C15.0474 145.843 15.8776 146.829 16.2409 147.659C17.7975 150.772 21.0146 152.225 23.9722 153.678C23.4533 150.876 22.8307 148.178 21.1184 145.791ZM33.4678 147.503C32.7414 146.05 30.3545 145.895 30.6658 147.815C30.8734 151.343 32.8452 153.678 34.765 156.169C35.9066 153.367 35.0245 150.046 33.4678 147.503ZM46.6993 158.348C47.2182 154.041 42.5483 149.527 42.0813 153.055C42.1331 156.376 43.4303 159.282 45.8691 161.513C46.2842 161.928 46.388 160.89 46.388 160.735C46.4398 159.905 46.9588 159.022 46.6993 158.348ZM57.8034 162.603C57.1807 160.579 57.0251 155.961 54.3788 155.702C53.4448 155.857 53.7561 156.687 53.7043 157.362C53.6524 159.489 55.0534 161.046 56.0392 162.758C56.3506 163.485 56.8694 164.107 57.4921 164.523C57.8034 163.952 57.959 163.225 57.8034 162.603ZM74.0963 160.423C74.719 164.626 77.6247 168.31 81.6201 169.556C79.2852 166.339 76.7945 163.277 74.0963 160.423ZM75.4973 160.112C78.0918 163.225 80.8418 166.235 83.5919 169.971C82.0353 165.249 79.5965 161.98 75.4973 160.112ZM37.6189 141.847C41.1473 140.862 44.3124 140.654 47.6333 140.602C44.6238 139.201 40.9397 139.305 37.6189 141.847ZM37.9821 142.522C41.251 144.701 44.4162 143.871 47.8927 142.055C44.2605 141.744 41.0954 142.262 37.9821 142.522ZM38.7604 129.55C36.1141 127.682 31.3404 128.772 29.3167 130.795C32.6895 130.795 36.166 130.743 39.2793 130.121C39.0717 129.913 38.9679 129.706 38.7604 129.55ZM29.3167 131.885C31.7555 133.493 34.9206 133.753 39.383 131.522C35.7508 131.989 32.5857 131.833 29.3167 131.885ZM31.9112 122.752C32.7414 122.649 35.1801 122.234 35.5433 121.507C32.6376 120.885 29.1092 121.455 25.7883 121.248C27.9157 122.234 29.8356 122.908 31.9112 122.752ZM25.8402 120.106C29.3686 120.573 32.6895 119.432 36.4773 120.314C32.7413 117.875 29.3686 118.498 25.8402 120.106ZM26.9298 107.549C25.7883 107.342 24.6986 107.134 23.5052 106.927C22.0005 107.394 18.2645 107.238 18.3164 109.365C18.5758 110.299 19.7174 110.299 20.4957 110.299C22.9345 110.403 25.1138 109.521 27.0336 107.964C27.1893 107.861 27.2412 107.601 26.9298 107.549ZM22.8826 98.4688C21.6373 97.898 20.2881 97.7942 18.8353 97.6904C17.9013 97.898 16.8635 97.5348 15.8777 98.2612C13.7502 99.9216 15.9814 101.79 18.0051 101.219C18.6796 101.478 25.5808 98.4688 22.8826 98.4688ZM13.7503 88.61C12.9719 88.8175 12.0379 88.8175 11.7785 89.6996C11.3115 91.2044 12.7644 91.1006 13.5427 91.4638C14.8399 92.0346 18.6278 90.6855 19.458 89.544C17.59 88.8694 15.8258 88.0392 13.7503 88.61ZM8.71705 81.2937C8.82082 81.7607 9.13219 81.9164 9.59919 81.9164C11.9342 82.3315 14.4248 82.3834 16.4484 81.1381C16.7079 80.9824 17.0711 80.8267 16.5522 80.5154C14.1653 79.1663 11.7785 78.6474 9.23593 80.1003C8.82082 80.3597 8.56138 80.8267 8.71705 81.2937Z" fill="#592116"/>
</g>
</svg>
