<svg width="110" height="181" viewBox="0 0 110 181" fill="none" xmlns="http://www.w3.org/2000/svg">
<mask id="mask0_45_20" style="mask-type:luminance" maskUnits="userSpaceOnUse" x="0" y="0" width="110" height="181">
<path d="M109.528 0.709606V180.29C109.528 180.696 109.224 181 108.819 181H1.26284C0.857352 181 0.553223 180.696 0.553223 180.29V0.709606C0.553223 0.304117 0.857352 0 1.26284 0H108.819C109.224 0 109.528 0.304117 109.528 0.709606Z" fill="white"/>
</mask>
<g mask="url(#mask0_45_20)">
<path d="M50.5802 163.311C47.4377 162.854 48.5527 157.532 49.4651 155.404C49.8706 154.441 49.7185 152.616 50.9857 152.312C54.1282 154.745 55.4461 162.094 50.5802 163.311ZM64.4682 149.321C63.6066 149.169 59.0448 149.119 59.2982 147.395C61.8832 144.861 68.6751 141.313 69.3847 146.635C69.0806 148.865 66.3436 149.271 64.4682 149.321ZM41.9636 148.51C39.9361 148.358 37.8073 149.017 36.1347 147.294C34.6141 146.179 34.4621 143.087 36.895 142.884C38.8717 142.783 47.2856 148.561 41.9636 148.51ZM43.4335 137.207C40.9499 137.562 33.0428 134.42 37.9594 132.189C40.8485 131.429 50.6816 137.157 43.4335 137.207ZM64.6709 137.005C62.39 136.852 59.3996 136.65 58.69 134.774C65.2285 128.439 73.9465 136.244 64.6709 137.005ZM18.1918 129.604C14.8465 129.148 18.3946 121.444 19.8645 120.988C22.044 122.66 21.4864 128.844 18.1918 129.604ZM44.6499 124.08C41.7608 124.384 34.462 120.227 39.2772 118.504C42.3691 118.453 52.3035 123.877 44.6499 124.08ZM66.1915 122.914C65.1778 122.812 59.4503 122.356 61.3257 120.785C62.8969 119.569 64.4682 118.403 66.7491 118.403C72.4259 117.947 71.1587 123.421 66.1915 122.914ZM32.4346 121.343C29.5962 121.038 27.1632 119.163 25.0851 117.49C24.3755 116.122 27.1633 116.325 27.9742 116.173C30.3058 115.818 37.047 119.771 32.4346 121.343ZM11.1464 111.662C7.90252 111.408 7.44637 107.556 10.7917 107.201C12.2616 106.745 18.6987 106.593 17.2288 108.924C15.6068 110.597 13.5794 111.509 11.1464 111.662ZM46.1198 109.077C43.5348 108.772 40.8992 108.62 38.669 106.644C37.6553 105.63 37.4525 104.008 39.48 103.957C41.6088 103.298 52.3542 109.077 46.1198 109.077ZM66.9011 109.026C65.1778 108.874 63.4038 108.671 61.7312 108.063C59.8558 106.644 64.8737 105.123 66.3436 105.072C70.2464 104.363 70.956 108.671 66.9011 109.026ZM33.9045 108.62C31.4209 108.215 29.0893 107.15 27.4167 106.137C24.3248 104.413 29.14 103.45 30.7112 103.856C32.9414 103.45 38.1114 107.505 33.9045 108.62ZM90.7236 105.478C87.7838 104.059 87.6317 98.7872 88.7468 96.2023C91.94 97.6215 94.373 103.856 90.7236 105.478ZM75.5178 100.764C71.5136 99.2434 78.8124 93.82 81.0425 94.9858C81.296 97.6215 78.4575 100.308 75.5178 100.764ZM13.7314 97.9763C5.92575 96.5571 12.9204 92.1474 19.0028 94.5803C21.6385 96.3543 15.1506 98.2804 13.7314 97.9763ZM102.077 97.3173C98.8334 97.4694 96.7552 95.1378 94.7278 93.1611C93.5113 91.9953 96.4004 92.0967 97.0087 92.046C99.6443 91.3871 106.994 95.9488 102.077 97.3173ZM67.1039 97.2667C56.0543 97.7228 67.0532 92.1474 70.6519 94.2762C72.578 96.5064 68.7765 97.368 67.1039 97.2667ZM34.31 96.3543C32.4853 96.3036 30.7113 95.6954 28.988 94.4789C26.6057 92.9583 30.5592 91.6912 31.9277 91.7926C34.5127 91.235 38.6183 96.1516 34.31 96.3543ZM46.3733 95.442C37.2498 95.6447 35.9319 84.0376 44.1431 91.1336C44.802 92.046 48.5528 94.7324 46.3733 95.442ZM73.0849 88.9035C66.0902 87.6363 76.4808 81.9595 77.748 85.2034C77.1904 87.1294 74.8082 88.9541 73.0849 88.9035ZM36.4388 86.1664C34.31 85.9637 33.1949 83.6828 32.3839 82.1622C32.0291 77.7525 42.1663 85.2034 36.4388 86.1664ZM99.7457 83.8855C97.0594 83.5307 93.6634 82.9732 91.9907 80.743C93.7647 78.7662 98.3772 78.7662 100.861 80.0334C103.091 81.0471 102.179 84.0883 99.7457 83.8855ZM62.8969 83.48C57.2708 83.3787 69.8409 75.9278 69.5368 80.9964C69.182 83.7842 64.975 83.0239 62.8969 83.48ZM48.8569 81.6047C39.0238 82.3143 37.6046 71.8222 44.2951 75.421C45.6637 76.384 50.3268 79.932 48.8569 81.6047ZM93.1565 70.3017C85.5536 70.8592 93.9675 64.8276 97.0593 65.4865C103.75 66.9564 96.4004 70.6058 93.1565 70.3017ZM48.7048 69.3386C43.4335 69.9469 39.3279 60.2151 45.8664 63.459C46.9815 64.3207 51.6953 69.2373 48.7048 69.3386ZM50.3775 57.1233C47.3363 57.4781 41.254 50.7875 45.3595 48.8614C47.3363 48.4053 52.1515 56.0589 50.3775 57.1233Z" fill="#6060BF"/>
<path d="M16.4685 84.1389C13.5287 84.291 14.0356 77.0428 15.5562 75.1675C19.1549 74.762 18.9015 82.669 16.4685 84.1389ZM75.011 69.5413C70.0437 68.2235 66.445 54.2341 73.1356 54.741C76.9371 57.8328 79.2686 66.2467 75.011 69.5413ZM25.9975 69.4906C23.0578 68.8317 21.9427 65.2837 21.9427 62.7494C22.0947 62.4959 22.2468 62.0905 22.5002 61.9891C23.2098 61.837 22.7029 60.5192 23.6153 60.7726C27.1126 62.2425 27.2647 65.1823 27.5688 68.2742C27.6195 68.9331 26.7072 68.629 26.5044 69.1358C26.403 69.3892 26.2003 69.4906 25.9975 69.4906ZM7.44646 64.6248C5.87519 61.837 13.4274 58.0863 15.911 58.8465C17.5836 60.5699 15.1507 62.9014 13.326 63.6617C11.9068 64.3206 10.3355 64.4727 9.27114 64.5741C8.56154 64.0672 8.10537 64.2193 7.44646 64.6248ZM33.2964 62.648C28.7346 61.6343 23.1591 49.0641 29.0387 49.4189C33.1443 51.4464 36.4389 58.8972 33.2964 62.648ZM60.0079 56.0588C57.4736 54.4369 62.5929 43.9448 65.2286 46.8846C66.9012 49.2162 64.2149 53.7273 62.1874 55.3999C61.2751 56.1095 61.123 55.1972 60.0079 56.0588ZM81.1947 51.4971C78.7111 51.4971 76.6836 49.9765 73.9972 47.8477C72.3753 43.9448 77.8494 45.1106 80.181 46.5298C82.766 47.7463 85.1482 51.7505 81.1947 51.4971ZM15.1 49.1655C13.326 49.0641 13.0726 49.2162 12.9205 47.5436C13.1233 44.249 20.7262 40.853 23.4126 42.9818C24.3756 46.6819 18.344 49.1655 15.1 49.1655ZM37.9088 48.1518C31.1675 45.1613 32.5867 34.6693 37.5033 41.3599C38.5677 43.1845 40.291 45.6682 39.5307 47.6449C38.7704 47.5435 38.6184 47.7463 37.9088 48.1518ZM98.0225 47.8477C94.4744 46.4285 93.0045 41.664 93.258 37.7611C93.3086 37.1022 93.9169 37.3556 94.2717 37.457C94.6772 37.5077 94.8799 37.0008 95.2854 37.1022C98.6814 37.3556 101.621 46.6819 98.0225 47.8477ZM83.5262 41.4105C80.1303 39.7379 84.8441 34.7707 87.0236 34.5679C87.9866 35.1761 89.5072 34.6186 88.6455 36.6967C87.7839 39.231 85.7564 40.4982 83.5262 41.4105ZM47.3364 40.042C43.3829 39.5858 39.5307 34.0104 41.8623 30.7665C45.5623 28.2828 48.7049 38.2173 47.3364 40.042ZM14.7959 37.5077C14.0356 37.457 14.5932 36.3926 13.8329 36.2406C13.5795 36.1392 13.4781 35.8858 13.5288 35.6323C13.5288 35.5816 13.5794 35.5309 13.6301 35.4803C16.0631 32.4391 25.6427 28.0801 25.8961 32.9966C21.9426 37.8625 19.307 36.494 14.7959 37.5077ZM75.4672 35.3282C73.5918 35.5309 67.6108 32.8953 70.1451 30.2596C73.389 28.2828 82.918 35.2268 75.4672 35.3282ZM103.395 33.098C101.013 32.9966 96.6032 31.2226 96.5525 28.0801C98.9855 26.002 104.358 27.8773 105.22 30.9692C105.118 31.324 105.22 31.7295 105.625 31.8816C106.639 32.946 104.003 33.0473 103.395 33.098ZM27.4675 23.7211C17.9892 24.0759 23.8687 17.6388 29.6469 17.8415C30.8127 17.7908 36.5402 18.6525 35.4758 20.2238C34.31 22.6567 31.4717 23.6197 27.4675 23.7211ZM71.615 23.2649C63.6573 23.0115 72.7808 16.1689 76.5315 17.9429C80.8399 18.7539 73.5918 23.7718 71.615 23.2649ZM9.01771 23.0622C6.93958 20.8827 9.37248 15.7634 11.704 14.5469C12.8698 14.851 13.326 13.888 13.7822 14.4962C14.8973 17.8415 12.1602 22.3019 9.01771 23.0622ZM97.4649 18.7539C95.2347 18.7539 93.5114 17.5881 91.5346 16.1689C89.9127 15.1551 90.3182 15.4593 90.4195 13.888C90.2168 11.6578 94.221 13.3304 95.4882 13.4825C98.1238 13.8373 102.027 18.9566 97.4649 18.7539ZM25.6427 14.851C22.3988 14.9017 19.1549 8.31252 22.3988 6.63988C25.44 6.99468 28.4304 12.8743 25.6427 14.851ZM66.3943 14.4455C63.86 14.2935 60.8189 12.925 59.3997 11.0496C59.0449 10.34 60.2107 10.3907 60.2107 9.73173C62.8463 6.48782 75.6192 14.2935 66.3943 14.4455ZM39.9869 12.925C36.7937 12.925 34.0059 11.9112 32.4347 10.0359C31.9785 10.0359 31.8264 9.42762 32.1812 9.17419C36.6923 5.42342 50.7323 11.4044 39.9869 12.925ZM9.42316 8.97144C2.58054 8.71801 6.17927 3.90283 11.1465 4.35901C17.6343 4.96724 13.7315 9.02213 9.42316 8.97144Z" fill="#50B271"/>
<path d="M105.676 29.9048C103.395 26.5088 99.4417 25.3937 95.6402 27.0663C95.3361 27.2184 95.2347 27.7759 94.6771 27.5225C93.0045 26.8129 91.1798 26.4581 89.4058 26.3567C89.1017 26.3567 89.0003 26.154 88.8989 25.9512C86.2632 20.9333 83.6783 16.2195 80.2316 11.5564C82.5125 12.5194 84.692 13.0263 86.8208 13.6852C87.8345 13.9893 89.203 13.7866 89.6592 15.2058C89.8113 15.5606 90.0647 15.9154 90.3688 16.1181C92.7004 17.6387 94.8292 19.7169 98.0224 19.2607C99.6444 19.2607 100.81 18.1963 99.9992 16.5743C99.0362 14.8003 97.8197 13.3811 95.7415 12.7729C93.6127 12.1139 91.5346 11.455 89.3551 12.4687C89.1017 12.5701 89.203 13.0263 88.6455 12.8742C86.618 12.2153 84.4893 11.8098 82.4618 11.1002C81.0426 10.644 79.5727 10.9482 78.6604 9.42758C76.4809 5.98093 73.6931 2.93976 71.9698 -0.811006C71.8177 -1.16581 71.4122 -1.46993 70.9054 -1.26718C70.4492 -1.06444 70.7533 -0.760321 70.9054 -0.50689C73.8452 5.32201 77.9508 10.3906 81.4481 15.814C80.6878 15.8647 80.0796 16.2195 79.4206 16.5236C78.6604 16.7771 78.0521 17.4867 77.2411 17.2839C74.4027 16.5236 71.3615 17.2839 69.2327 19.2607C68.1176 20.173 67.0532 21.3895 67.9655 22.9608C68.6245 24.0252 69.9424 23.8224 71.0574 23.9238C74.0986 24.1265 77.748 22.2512 78.5083 19.1593C78.9138 17.3853 80.3836 17.0812 81.6508 16.2195C84.5399 20.2744 86.5674 24.8868 89.051 29.2458C89.7606 30.3609 91.2305 31.6788 89.1017 33.098C88.0373 34.0103 87.5304 33.6555 86.4153 33.9596C83.6782 35.2268 80.6371 38.1159 81.7015 41.4612C82.0563 42.0694 82.7152 42.3735 83.3741 42.1201C84.9454 41.5119 86.466 40.9543 87.7839 39.7885C91.4839 36.5446 87.6318 34.5172 90.977 32.7939C91.3825 34.5172 93.2579 35.5816 92.7004 37.8118C92.2949 39.3324 92.599 41.0557 93.0552 42.6776C93.8154 45.5161 95.995 49.1655 99.3402 48.6079C100.303 48.2024 100.05 47.0873 100.253 46.2257C100.557 44.7558 100.354 43.2859 100.101 41.816C99.5937 39.3831 98.3265 37.609 96.0963 36.5446C95.4881 36.2405 94.5757 36.2405 94.3223 35.7843C92.7004 33.0473 91.0784 30.2596 89.6592 27.4211C90.5716 27.5225 91.4839 27.7759 92.3963 28.0801C97.1101 28.9417 94.0689 29.55 98.9348 32.4391C101.165 34.4158 109.021 34.872 105.676 29.9048ZM91.1798 13.2797C92.6497 13.077 93.9675 13.6345 95.336 13.9386C97.0594 14.3441 98.1238 15.5606 99.0361 16.8784C97.6169 16.2702 96.1977 15.7127 94.8799 15.1044C93.5621 14.4962 92.1935 14.1414 90.825 13.7359C90.7743 13.7359 90.7236 13.5838 90.7236 13.5332C90.8757 13.4318 91.0277 13.3304 91.1798 13.2797ZM99.0868 18.0442C95.7415 19.0072 93.4607 16.8784 90.6223 15.003C93.8155 15.7127 96.4004 17.0305 99.0868 18.0442ZM68.8272 21.7443C69.2834 19.4634 73.8452 17.7908 76.1767 18.1963C73.5411 19.4634 71.2602 20.7306 68.8272 21.7443ZM77.4439 19.0073C75.7712 21.947 72.9328 23.2142 69.5369 22.758C72.3246 21.2881 74.6561 20.173 77.2918 18.6524C77.5959 18.5511 77.5453 18.8045 77.4439 19.0073ZM82.7152 40.0927C82.4618 38.3693 85.7564 34.7706 87.1756 35.0241L82.7152 40.0927ZM88.088 36.7474C87.3784 38.5721 86.0605 39.8899 84.1344 40.4981C83.8303 40.5995 83.7796 41.1064 83.2728 40.9036C84.5906 39.3831 85.9084 37.8625 87.1756 36.3926C87.4797 36.0378 87.8345 35.3282 88.1893 35.5309C88.6962 35.7337 88.24 36.3926 88.088 36.7474ZM95.6909 37.609C99.0362 39.5351 99.1882 43.2352 99.0361 46.8846C98.0224 43.4379 96.5525 40.5488 95.184 37.5584C95.3361 37.5584 95.5388 37.5584 95.6909 37.609ZM98.1745 47.1887C98.2252 47.2394 98.2252 47.3408 98.2758 47.3915C98.1745 47.3915 98.0224 47.4421 97.9717 47.3915C94.5251 45.2626 93.6127 41.7653 93.7648 37.7611C95.336 41.2078 96.7553 44.1982 98.1745 47.1887ZM103.04 28.891C103.497 29.2458 104.814 30.3609 104.713 30.9692C102.077 30.3102 99.5937 28.9924 96.958 28.0801C99.1375 27.4211 101.165 27.6239 103.04 28.891ZM97.0594 29.3979L105.423 32.287C102.077 33.3514 99.695 31.7801 97.0594 29.3979ZM96.7553 91.4377C95.6402 91.4377 94.5758 92.0966 93.6128 91.8938C91.9401 91.5897 90.4195 90.9815 88.7976 90.4239C88.3921 90.2719 87.8345 90.6774 87.5811 89.8664C86.8208 87.5348 86.3139 85.1526 85.3002 82.8717C85.1988 82.6183 84.5906 81.8073 85.2495 81.6553C87.1756 81.2498 89.5072 81.1991 91.4332 81.5539C93.9168 83.7841 97.1101 84.8992 100.455 84.595C106.538 84.1389 102.381 75.725 93.1059 79.1716C92.2949 79.4757 91.7374 80.2867 90.825 80.2867C89.3044 80.1347 87.8345 80.1854 86.3139 80.236C85.7564 80.236 84.9961 80.9456 84.5399 80.084C83.4755 77.9552 82.8166 75.6743 81.3467 73.7989C83.6782 73.292 85.8578 72.329 88.0373 71.518C88.7469 71.2646 89.2537 70.5043 90.1154 70.7577C92.7004 71.518 100.861 70.5043 100.911 67.1083C100.861 65.6891 99.4923 64.9288 98.2252 64.7261C94.0182 64.1179 90.7743 66.7029 88.6962 69.9975C87.6824 70.4029 80.6371 73.4948 80.333 72.5318C79.5727 71.4167 78.6096 70.4536 77.4946 69.6426C75.8219 69.0851 79.7754 65.9426 77.1904 59.3027C76.4808 56.5656 74.5041 54.3354 71.9698 53.4231C70.7533 50.8888 70.3985 47.8983 69.6889 45.212C73.541 46.7832 72.426 46.3777 74.9096 49.2668C77.1904 51.0915 79.522 52.4094 82.5632 51.9532C83.5769 51.8011 84.7934 50.7367 84.4893 50.0778C82.8166 46.175 78.5589 43.3873 74.2506 44.5023C73.541 44.6544 73.2369 45.8709 72.2232 45.212C71.767 44.9078 71.1081 44.8572 70.7026 44.5023C70.1957 44.0969 69.3848 44.6544 69.1313 43.7927C67.7628 38.8255 65.9381 34.061 64.0627 29.2965C64.7723 29.2458 65.2285 29.702 65.6847 30.0061C66.6984 30.7664 68.3203 30.4623 68.9793 32.0336C70.1957 34.8213 75.4671 37.5584 78.5589 35.5816C79.4206 35.024 80.0289 34.4158 79.1672 33.4021C77.1905 31.0199 74.4534 28.6376 71.0574 29.4993C70.3478 29.702 69.7396 30.4116 68.9793 30.1582C68.0669 29.9048 67.2053 29.55 66.3943 29.0938C65.3299 28.4855 63.7079 28.739 63.2518 27.2184C60.7175 21.1361 58.2338 14.9017 55.2433 9.07278C55.294 9.07278 55.3954 9.02209 55.4461 9.02209C56.0036 9.32621 56.6119 9.42758 57.2201 9.47827C59.3996 9.7317 57.6763 11.2016 61.4271 13.3304C63.5052 14.851 68.9286 16.0675 70.804 14.0907C71.6657 12.6208 70.2464 11.8605 69.4861 11.1509C67.5094 9.27552 64.5189 7.65357 61.6805 8.31249C60.5654 8.56592 59.6023 9.3769 58.3352 8.76866C57.068 8.00837 54.3817 8.2618 53.7228 6.84259C52.6077 4.30829 51.0364 2.0781 49.5159 -0.202775C49.1611 -0.709635 48.8062 -1.82473 48.2994 -1.46993C47.6405 -1.01375 48.6035 -0.304146 48.9076 0.253401C50.0227 2.58496 51.1378 4.86584 52.1515 7.24808C52.5063 8.10974 54.3817 9.12347 52.1515 10.0865C51.2392 10.5427 50.3268 11.8098 49.2117 11.5057C42.1663 10.3399 45.2582 7.1974 37.0978 6.99465C35.3744 6.89328 33.7524 7.45082 32.1812 8.16043C29.14 9.32621 32.7894 11.3537 34.1579 12.2153C36.3881 13.2797 38.6183 13.7866 41.1526 13.5332C42.9773 13.3811 44.4472 11.8098 46.3226 11.9619C47.1336 12.1139 47.9952 12.4181 48.8569 12.4687C48.8569 12.4687 48.8569 12.6715 48.8062 12.7222C48.1473 13.077 47.7925 13.8373 47.235 14.2428C46.0692 15.1044 45.2582 16.3209 44.2445 17.3853C43.6363 17.9935 43.2814 19.1086 42.3691 19.21C41.4567 19.3114 40.5951 19.3621 39.6827 19.4127C38.669 19.3621 37.4525 19.6662 36.4895 19.3621C35.3237 18.0949 33.7018 17.5374 32.1305 17.2332C28.988 16.5743 25.8961 17.0812 23.3618 19.21C22.2974 20.0717 20.5741 20.8826 21.4864 22.758C22.0947 23.9238 23.6659 24.2279 24.781 24.2786C28.2784 24.532 31.8771 24.7348 34.9182 22.1498C35.4758 21.6936 35.8306 20.7813 36.5909 20.7306C38.1115 20.5278 39.6827 20.5278 41.2033 20.4771C42.217 20.3758 40.6458 21.7443 40.4937 22.0991C39.2772 23.6704 38.1115 25.2416 36.895 26.8129C36.1347 27.8266 35.8306 29.3472 34.3607 29.4993C31.4209 29.4993 28.7852 31.3747 25.6934 30.665C23.1591 30.0061 20.6248 30.3102 18.1918 31.476C16.3671 32.3884 12.1095 34.872 12.7684 37.1529C13.9849 38.8762 17.8877 37.5584 19.7631 37.5584C22.2467 37.3049 24.1728 36.0378 25.8454 34.3144C26.403 33.7062 26.403 32.4897 26.8591 32.3377C29.4441 31.4253 32.0798 30.7664 34.5127 30.1075C32.9921 32.4391 31.4716 34.9227 29.799 37.3049C28.6839 38.8762 28.6838 41.3091 26.3016 41.8667C25.4906 42.0694 24.5276 42.9311 23.8686 42.5256C20.3206 40.194 13.6301 43.4379 12.0082 47.0367C11.2985 48.4559 11.3999 49.8244 13.326 49.571C16.9754 49.6723 20.9289 49.571 23.1084 46.0736C23.7673 45.0599 23.8687 43.4379 25.5413 43.1845C25.8961 43.1845 26.9099 42.4749 26.7071 43.2352C25.0345 46.7325 23.1591 50.1285 21.6385 53.7272C21.0303 55.0957 21.081 56.9711 19.3576 57.7314C18.8001 57.9848 18.3439 58.5931 17.685 58.5931C15.6068 57.9848 13.478 58.0862 11.6533 59.0493C9.92998 59.9109 8.20668 60.9246 6.99022 62.5973C6.28061 63.611 6.07783 64.9795 6.88881 65.233C9.92997 65.9932 15.8096 64.6247 16.7726 61.3301C17.1781 59.8095 18.1918 59.0999 19.5603 58.6945C18.3945 62.5466 17.1274 66.5001 16.5192 70.6057C16.3164 72.0249 16.4685 73.5962 15.1507 74.7619C14.4917 75.3702 14.2383 76.3332 14.0356 77.2456C13.6301 78.9689 13.6301 80.7429 14.0863 82.4662C14.3397 83.5813 14.9986 84.6964 16.0123 85.1526C17.1274 85.6594 17.5329 84.443 18.0905 83.7334C19.6617 81.5539 19.5603 79.2223 19.0535 76.7387C18.8 75.5729 17.5329 74.7619 17.5836 73.6975C17.8371 68.4769 19.3576 63.2562 21.2837 58.441C22.9056 61.1781 21.7905 61.8877 21.7399 64.6754C21.8919 67.2097 23.5646 69.744 26.0482 70.2509C26.8085 70.4029 27.9235 70.5043 28.1263 69.1865C28.2783 68.2234 28.0249 67.3111 27.9235 66.348C27.6194 63.8644 26.9098 61.5836 24.2235 60.5698C23.1591 60.1643 21.5878 57.5287 21.8919 56.8191C23.1084 53.9806 24.3755 51.1929 25.592 48.3545C25.6934 48.1517 25.8455 47.949 25.9468 48.1517C26.2003 48.8614 26.555 49.4189 26.3523 50.2806C25.3892 54.5889 27.5181 60.063 31.2689 62.3945C33.1949 63.3576 32.8908 63.7631 32.0292 65.4864C28.6332 74.103 25.8961 82.9224 23.9194 91.9952C23.9701 94.5802 19.5096 94.2254 17.7863 93.6679C14.9986 92.4007 7.59844 93.161 10.3355 97.7227C12.1602 99.6488 17.3808 98.7365 19.0535 97.0131C20.0672 95.898 21.1316 95.0364 22.7029 94.7829C23.4125 94.6816 23.3618 95.0364 23.2604 95.3912C22.9056 96.5063 22.7536 97.672 22.5508 98.8378C22.2467 100.967 21.6892 103.095 21.4864 105.224C21.3851 105.934 21.233 107.049 21.0302 107.1C20.3713 107.302 19.5097 107.556 18.8508 107.607C18.5467 107.607 18.2425 107.556 18.0397 107.404C15.6575 105.579 9.01763 105.275 7.85185 108.417C6.93951 114.703 15.6575 112.371 17.9891 109.026C18.6987 108.215 19.8645 108.772 20.7768 108.417C20.7261 111.104 20.2192 113.841 20.0672 116.527C19.9658 117.642 20.27 119.062 19.7124 119.873C18.1411 122.103 16.7219 124.282 16.4685 127.07C16.3671 128.286 16.0123 129.604 17.3809 130.314C21.4864 131.834 22.9056 125.195 21.7905 122.407C21.2837 120.734 20.1179 119.214 20.8782 117.338C20.9796 117.136 21.081 116.781 21.1316 116.781C21.5371 116.831 21.9933 116.882 22.4495 116.882C22.9563 116.933 23.4125 117.034 23.7166 117.288C26.1496 119.315 28.6839 121.19 31.8264 122.153C33.9045 123.066 35.8813 120.684 34.6648 118.707C33.0429 116.122 29.9003 115.412 27.1126 115.615C25.592 115.868 24.1728 116.629 22.5508 116.071C21.7905 115.818 21.1823 115.615 21.233 114.956C21.8919 112.118 21.9426 109.026 22.7029 106.137C22.7536 105.833 22.5509 105.022 23.666 105.275C24.9331 105.579 25.9975 105.985 27.1126 106.745C28.8359 107.911 30.7113 108.772 32.7894 109.178C35.121 109.938 37.5539 108.57 36.3375 106.035C34.7662 103.248 30.2551 102.335 27.4674 103.653C26.3523 104.16 25.2372 104.261 24.0207 104.261C22.196 104.413 23.5645 101.98 23.5645 100.967C23.8687 99.1419 24.1221 97.2666 24.5783 95.4419C24.6796 94.935 24.3755 93.9213 25.2879 93.9213C26.2002 93.9213 27.2646 93.9213 27.9235 94.4281C29.5962 95.746 31.4716 96.4556 33.499 97.0638C35.3744 97.672 37.4018 96.5063 37.2498 94.5802C37.0977 93.0596 35.8813 92.2993 34.6648 91.539C33.0935 90.576 30.1537 91.1842 28.5825 92.6034C27.4674 93.6172 26.5044 92.7555 25.4906 92.6034C25.0345 92.5021 25.4906 91.8431 25.5413 91.4883C25.8454 87.8389 27.3153 84.4937 28.329 81.047C28.4304 80.6922 28.0756 79.273 29.3428 79.9826C30.2551 80.4895 31.4716 80.895 31.8771 81.7059C32.8401 84.1389 35.3237 88.3458 38.4663 86.3184C41.1526 83.7841 36.2867 80.1347 33.7524 80.3374C31.0661 80.5908 31.7757 79.7799 29.4949 78.7661C29.3428 78.6648 28.8359 78.8168 28.988 78.3607C30.5593 73.3934 31.9784 68.2741 34.1579 63.5096C37.3512 58.9986 34.0566 48.76 28.0249 48.8613C27.5181 48.912 26.3016 47.7463 26.5044 47.0367C26.9605 46.0229 27.5181 45.0092 28.0756 44.0462C29.5455 41.5119 30.5592 38.7241 32.3839 36.4433C32.4853 36.5953 32.6374 36.7474 32.6374 36.9501C32.7387 37.7611 33.8032 38.3693 33.347 39.231C32.9415 40.042 32.9415 40.9543 33.0429 41.7146C33.0936 46.6819 40.7471 52.5614 40.7978 46.9353C40.7471 44.2996 38.7197 40.5995 36.5402 39.1803C35.6785 38.6228 34.2593 38.7241 34.0059 37.3049C33.9045 36.5953 32.7894 36.0378 33.1442 35.2775C35.4758 31.7801 37.706 28.1814 40.2909 24.8868C40.7471 25.6978 40.8992 26.6608 41.2033 27.5225C41.4568 28.3842 42.065 29.3979 41.8115 30.0568C41.1526 31.7801 41.0006 33.4528 41.5074 35.1761C42.0143 37.0008 42.7746 38.6735 44.4979 39.6872C45.2582 40.1433 46.1706 40.3968 46.9815 40.853C47.9446 41.4105 48.6035 40.9036 48.7048 39.8899C48.9583 36.4939 47.7925 32.0336 44.7007 30.2596C44.1431 29.9554 43.2308 29.9048 43.028 29.4486C42.2677 27.7759 41.7101 26.0019 41.1019 24.2786C42.3691 21.1868 45.3089 18.6018 47.4884 16.0168C49.4652 14.04 51.6446 11.6578 54.2296 10.492C54.5844 11.2523 55.0913 11.9619 55.142 12.7729C55.6489 18.9059 55.1927 25.0896 55.2433 31.2226C55.3447 38.3693 55.8009 45.5668 55.4461 52.7135C55.4461 53.119 55.7502 53.5752 55.5982 53.8793C55.2941 54.7409 55.6488 55.6026 55.4968 56.4643C55.3447 57.5287 55.4461 58.5931 55.4461 59.8602C55.142 59.5561 55.0913 59.3534 54.8886 59.252C52.7091 58.289 51.8981 55.856 51.0871 53.7779C50.1241 51.5477 47.8432 46.7832 44.8527 48.2531C42.4198 49.9764 44.1938 53.6258 45.8157 55.2478C46.8295 56.3122 47.9953 57.2246 49.5665 57.63C50.3775 57.8835 51.2392 57.4273 51.8981 57.9848C52.6584 58.5931 53.4187 59.3027 54.0776 60.063C54.4831 60.5191 55.3448 60.5191 55.3448 61.1781C55.2434 64.8782 55.7502 68.6289 55.0913 72.2276C53.9762 71.0112 51.8474 70.2002 51.0871 68.8824C50.0734 66.2467 46.8802 60.7726 43.5349 61.989C42.7239 62.4452 42.1157 63.1041 42.217 64.2192C42.4198 66.9056 45.5116 69.8961 48.4007 69.8961C49.7692 69.6933 51.0871 69.6426 51.9994 71.0619C53.2159 72.5318 55.5982 72.8359 55.3448 75.3195C55.0913 78.31 54.7872 81.1991 54.6858 84.2402C53.7228 83.0745 52.4556 82.3649 51.3912 81.5032C50.3268 80.6922 49.9213 79.3744 49.2624 78.2593C47.9953 76.3839 44.4979 73.292 42.1156 73.5962C39.4293 74.0523 38.9224 77.499 40.7471 79.1716C43.0787 81.5032 45.9678 82.3142 49.2624 81.9594C51.1885 81.7566 52.1515 83.5306 53.4693 84.4937C53.9762 84.8485 54.8379 84.8992 54.7365 85.9636C54.4831 89.9678 54.2803 94.0227 54.0776 98.1282C53.0132 97.4693 51.8981 96.8104 50.783 96.1515C50.1748 95.7967 49.4145 95.6446 49.009 95.1377C47.1336 92.5021 45.3089 89.765 42.3184 88.2444C37.8073 85.9129 37.2498 91.539 39.9868 93.5665C41.8115 94.935 43.839 95.6953 46.1198 95.898C46.8801 95.9487 47.6404 95.4925 48.4007 95.9487C49.6172 96.709 50.935 97.3172 52.1515 98.1282C53.0639 98.7365 54.3817 98.9899 54.1283 100.764C53.7228 103.856 53.8242 106.998 53.5707 110.141C51.8474 108.975 49.972 108.164 48.35 106.694C46.1705 104.565 43.4335 103.248 40.2909 103.095C39.3279 103.045 38.4663 103.095 37.9087 104.008C36.3375 107.708 44.0417 109.837 46.8801 109.482C48.8062 109.127 50.7323 109.381 52.3036 110.698C52.7091 111.053 53.52 111.002 53.4693 111.813C53.3173 113.841 53.0638 115.868 52.9625 117.896C52.8104 119.771 52.8104 121.697 52.709 123.623C52.709 123.775 52.5063 123.978 52.4049 124.13C51.3405 123.421 49.7692 123.623 48.9583 122.407C48.2993 121.444 47.4884 120.582 46.4747 120.025C44.2952 118.91 39.8348 115.97 37.7566 118.453C37.1991 119.366 37.0977 120.531 38.0607 121.495C39.9361 123.471 42.7239 124.688 45.461 124.586C48.8569 123.877 48.4514 123.573 51.594 124.992C52.3543 125.144 52.5063 125.549 52.4556 126.208C52.2022 129.959 51.9994 133.71 51.746 137.461C51.746 137.765 51.594 137.866 51.3405 137.765C50.3775 137.359 49.3131 137.055 48.5021 136.447C47.387 135.636 46.5761 134.47 45.461 133.71C43.5349 132.341 41.4061 131.328 38.9731 131.277C38.0101 131.226 37.0978 131.429 36.5909 132.189C33.9552 136.041 41.5074 137.765 44.1431 137.714C47.6911 137.359 47.9445 137.004 51.2391 138.829C51.3912 138.88 51.594 138.981 51.594 139.285C51.4419 142.124 51.3405 144.962 51.1378 147.75C51.0871 148.105 51.6446 149.068 50.4788 148.865C49.4144 148.662 48.35 148.459 47.3363 148.206C46.5254 148.003 45.5117 147.953 44.9541 147.446C42.6225 145.216 39.6827 141.313 36.0333 142.58C33.8538 143.796 34.8676 147.344 36.8443 148.257C38.8718 149.27 41.0006 149.27 43.1801 149.017C43.839 148.916 44.3459 148.307 44.9541 148.51C46.424 149.068 47.9953 149.22 49.5159 149.676C50.2761 149.828 51.4419 149.929 51.1378 151.095C51.0364 151.602 50.4282 152.008 50.2254 152.514C49.4144 154.795 48.6541 157.076 48.198 159.458C47.9952 160.523 48.9076 163.311 49.82 163.767C51.8474 164.73 54.5338 163.209 54.8379 160.928C55.0406 159.509 55.142 158.141 54.8379 156.671C54.4324 154.897 53.52 153.275 52.2529 152.008C51.5432 151.349 51.746 149.98 52.8104 150.132C54.8379 149.828 56.8653 148.814 58.8928 148.561C60.2613 148.358 61.4777 149.27 62.7956 149.625C64.9244 150.183 66.9012 149.879 68.8779 149.118C70.4999 148.459 70.804 146.939 70.4998 145.469C70.145 143.898 68.7259 143.29 67.3067 143.239C65.1272 143.137 63.2518 144.202 61.5284 145.469C60.6161 146.128 59.9065 147.142 58.9435 147.547C57.1188 148.257 55.1926 148.612 53.2666 149.068C52.8611 149.169 52.2529 149.828 52.2529 148.51C52.3035 145.165 53.0638 141.87 53.0131 138.525C53.0131 138.424 53.0639 138.322 53.1652 138.221C54.8886 137.613 56.4598 136.802 58.0818 135.889C58.2845 135.788 58.4873 135.788 58.6393 135.839C61.6805 137.613 65.7354 138.728 68.9793 136.7C69.6889 136.244 70.0437 135.382 69.9423 134.572C69.7903 131.632 65.7354 131.277 63.4545 131.834C61.4271 132.291 59.7544 133.71 58.0818 134.774C56.7132 135.585 55.142 136.092 53.6721 136.802C52.3543 138.018 53.9255 128.337 53.8748 127.628C53.9255 126.107 53.6721 124.688 55.7502 124.282C57.0174 124.029 58.1832 123.319 59.3996 122.964C62.9477 121.799 65.0764 125.043 69.6889 123.116C70.804 122.66 71.9191 122.153 71.9698 120.785C71.8684 115.868 64.671 117.389 62.238 119.67C60.9202 121.089 61.0216 121.444 59.0448 122.001C57.5242 122.559 55.953 123.015 54.4324 123.623C53.9255 123.826 54.1283 123.522 54.1283 123.37C54.4324 119.264 54.5845 115.159 54.8379 111.104C54.6351 109.381 56.0543 109.634 57.2201 109.127C61.0723 106.998 64.9244 111.053 68.9286 109.482C72.5273 108.367 71.615 104.515 68.0669 104.16C65.6847 104.261 63.5052 105.123 61.5791 106.39C59.7037 107.607 57.5243 107.607 55.5982 108.57C55.3954 108.671 55.0913 108.722 55.142 108.316C55.2941 105.579 55.4461 102.893 55.5474 100.156C55.5981 99.4461 55.6488 99.0913 56.5105 98.8378C57.2201 98.6351 57.9297 98.483 58.6393 98.331C59.8051 98.0775 60.8695 97.3679 62.1366 97.52C65.0257 97.7734 71.7164 99.5474 72.6287 95.5939C72.8314 94.7829 72.4259 94.0733 71.7163 93.6172C68.4724 91.6911 64.4176 94.4281 61.7312 96.1515C60.2106 96.9624 58.3859 96.9624 56.8146 97.5707C55.6995 97.9762 55.8009 97.4693 55.8516 96.7597C56.0037 93.2117 56.1557 89.6636 56.3077 86.1156C56.3584 85.5074 56.0543 84.9498 57.2201 84.8485C59.4503 84.6964 61.5791 84.1389 63.86 84.1896C65.9381 84.2402 68.0669 84.1389 69.9423 83.0238C71.9191 82.1621 71.5643 78.9689 69.4354 78.6648C65.8367 78.1072 63.2011 80.1347 61.0722 82.7703C59.8558 83.1251 58.6393 83.3279 57.3722 83.5306C56.2064 83.8348 56.3077 82.9731 56.5612 82.2635C56.9667 74.4071 57.068 66.5508 57.0174 58.6945C57.068 57.0218 57.4229 55.3492 57.1694 53.7779C56.916 52.3587 57.2708 50.9902 57.068 49.571C56.8653 48.3038 57.2708 46.9353 57.2201 45.6681C56.8653 42.1201 57.1187 38.5721 57.0174 35.0241C56.7132 28.0801 56.9667 21.0854 56.3585 14.1414C58.8928 19.3114 61.0723 24.6841 63.2518 30.0568C64.4176 33.1487 65.5833 36.1898 66.6984 39.2817C67.0025 40.0927 67.4587 41.1571 67.2052 41.816C66.445 43.5393 65.8874 45.1106 64.0121 46.1243C60.3627 48.1011 59.3996 51.8011 59.3996 55.704C59.8558 61.0767 67.8135 52.9162 66.9518 48.4052C66.9011 46.5298 66.5464 44.553 67.7628 42.9818C69.03 45.8202 69.5875 49.0134 70.3985 52.0546C70.6012 52.9162 71.4122 53.7779 70.9054 54.6396C68.4217 59.3027 69.6889 68.3755 75.2644 70.2002C76.2274 70.3016 77.3425 70.1495 78.0521 70.9098C79.7754 72.7345 81.4481 74.7113 82.3604 77.0428C82.8166 78.2086 84.9961 79.5264 82.7152 80.9963C76.8357 86.4197 76.9877 81.4525 72.1725 85.0512C71.2095 85.8115 69.993 86.5211 70.7026 88.0924C71.2095 89.2075 72.2739 89.765 73.4397 89.7143C75.3657 89.6636 77.5959 88.9034 78.5589 85.9636C78.6603 85.6088 78.8124 85.1526 79.1165 84.9498C80.6878 83.8348 82.259 82.821 83.881 81.7566C84.1344 81.6046 84.2358 81.6552 84.3372 82.0101C84.8947 83.7841 85.5029 85.5074 86.1619 87.2307C86.5673 88.3458 87.0235 89.3595 85.655 90.2719C85.0468 90.6774 84.6413 91.4377 84.0837 91.9952C81.2453 95.746 76.7343 93.5158 74.4534 98.9392C73.9972 100.156 74.6054 101.321 75.8219 101.575C78.4069 101.727 81.1946 99.3447 82.0056 96.9624C82.2591 96.2022 82.1576 95.1377 82.6645 94.6816C83.7289 93.7185 84.8947 92.8062 85.8578 91.7418C86.618 90.8801 87.3276 90.0691 87.7331 92.0459C87.9865 93.2624 88.8989 94.4281 88.7976 95.746C88.6455 97.1145 88.24 98.483 88.1893 99.8516C88.1386 101.93 89.1523 107.1 91.9908 106.39C95.7415 104.819 93.6127 99.4968 91.788 97.1145C89.1016 94.6816 89.7099 95.6446 88.9496 91.9445C88.5441 91.0829 92.9031 92.8062 93.4607 92.8062C94.0182 92.9582 94.5758 93.2117 95.0319 93.7692C96.0456 95.0871 97.3635 96.2528 98.7827 97.2159C107.653 101.423 106.335 91.2349 96.7553 91.4377ZM92.7004 80.4895C100.101 77.4483 104.865 83.0238 99.4417 83.4293C95.8936 82.821 95.4881 82.9224 92.4976 80.895C92.2949 80.7429 92.599 80.5402 92.7004 80.4895ZM91.7373 68.0207C93.6127 66.4494 96.6032 65.0809 98.8841 66.5508C99.5937 67.2604 99.3403 68.3755 98.2252 68.6289C95.7416 69.4399 92.9538 70.4029 90.3182 69.5413C90.7743 69.0344 91.1798 68.4769 91.7373 68.0207ZM74.2506 47.5435C77.4439 48.5065 80.0795 49.723 82.8673 50.8381C79.8261 51.6998 77.5452 50.1285 74.2506 47.5435ZM74.8589 45.8202C77.2918 45.1106 81.8029 47.3915 82.7659 49.7737C79.9782 48.2024 76.937 47.2901 73.9972 46.1243C74.3013 46.0736 74.5548 45.9216 74.8589 45.8202ZM78.1028 34.0103C75.3657 32.5911 72.8821 31.6788 70.2464 30.7157C73.7438 29.6513 75.7712 31.6788 78.1028 34.0103ZM77.4946 34.6186C74.4027 35.4295 71.9698 34.5172 69.6889 31.7295L77.4946 34.6186ZM69.4861 13.1784C66.4956 11.8605 63.708 10.5934 60.6668 9.78239C62.897 8.66729 67.9655 10.5934 69.4861 13.1784ZM60.7175 10.8468C63.5052 11.6578 66.2422 13.1277 69.0807 13.5332C67.5094 14.04 65.9381 14.2428 64.3162 13.6345C62.7449 12.9249 60.7681 12.266 59.8051 10.7961C60.1092 10.7454 60.4133 10.7454 60.7175 10.8468ZM33.6004 10.644L43.1801 11.6578C41.3047 13.1784 35.8306 12.4181 33.6004 10.644ZM32.4346 9.57964C36.1347 7.29877 41.8622 8.87003 43.4842 10.5934C39.8855 10.0358 36.2361 9.52895 32.4346 9.57964ZM22.9563 22.606C26.8592 21.9977 30.6606 20.984 34.6141 20.8826C32.9415 22.9101 27.9236 24.0252 22.9563 22.606ZM27.4674 20.4265C25.9468 20.5785 24.4769 21.3388 22.9057 21.2881C26.0989 17.4867 31.0661 17.6387 35.3238 19.7169C32.3333 19.5141 29.9003 20.1223 27.4674 20.4265ZM13.9849 35.835C17.2288 32.5911 20.6248 30.9692 25.1865 31.5774C21.2837 32.7432 17.8877 34.3144 13.9849 35.835ZM25.3892 33.0473C22.5508 36.5953 19.0028 36.3419 14.7959 37.0515C16.0124 35.9871 17.3302 35.835 18.4453 35.2268C19.6617 34.5679 21.081 34.2131 22.3988 33.7062C23.4632 33.4021 24.4769 32.5911 25.592 32.7432C25.5413 32.8445 25.4906 32.9459 25.3892 33.0473ZM22.9057 42.9818L13.2246 47.2394C14.1369 44.9585 19.3069 41.968 22.9057 42.9818ZM13.4273 48.4559C16.6712 46.986 19.8645 45.5668 23.0577 44.0969C22.7029 46.8339 16.874 49.4696 13.4273 48.4559ZM7.4464 64.1686C7.64915 62.3945 12.4643 58.6438 15.8096 59.3027C13.0726 61.1274 9.93002 62.0904 7.4464 64.1686ZM9.22042 64.1179L16.063 60.4178C14.6438 63.2055 12.0588 63.8644 9.22042 64.1179ZM15.7589 83.4293C14.3903 82.4155 14.441 77.6004 15.9616 75.4209C15.9616 78.2086 15.4041 80.7936 15.7589 83.4293ZM17.4822 81.7059C17.3302 82.4662 16.9247 83.0238 16.4685 83.6827C16.6205 81.1991 16.3671 78.5634 17.1274 76.2318C18.1412 77.9045 17.8877 79.8812 17.4822 81.7059ZM27.0619 68.3248C25.4399 65.9426 24.6797 63.5603 23.4125 61.2288C26.6564 62.5973 26.8085 65.2836 27.0619 68.3248ZM22.6522 62.4452C23.818 64.3206 24.4262 66.5001 25.7947 68.2741C25.9468 68.4769 26.2509 68.781 26.0482 69.0344C23.3111 68.3755 22.6522 65.4864 22.3481 63.0028L22.6522 62.4452ZM19.1549 95.5432C17.1781 97.3172 14.289 98.0775 11.8561 97.1145C11.2985 96.8611 10.8423 96.6076 10.8423 95.9994C11.6026 93.2117 16.874 94.6309 18.9014 95.0364C19.1042 95.0364 19.459 95.2391 19.1549 95.5432ZM16.9754 108.57C11.3492 114.145 5.57098 108.975 10.893 107.657C12.9711 107.201 14.9479 107.201 16.9247 108.113C17.4315 108.316 17.0767 108.468 16.9754 108.57ZM25.6934 116.933C35.8813 115.311 36.4388 126.411 25.3892 117.085C25.4906 117.034 25.592 116.983 25.6934 116.933ZM20.5234 122.914C21.385 128.996 16.874 130.871 17.3809 127.526C17.685 125.701 18.1412 123.927 19.1549 122.305C19.3576 121.951 19.8138 121.342 19.9152 121.495C20.27 121.9 20.4727 122.407 20.5234 122.914ZM27.8729 104.464C30.103 104.008 32.8401 104.16 34.5635 106.086C35.4758 107.1 34.7155 108.519 33.3977 108.063C31.0154 107.404 28.5825 106.593 26.7071 104.971C27.1126 104.819 27.4674 104.565 27.8729 104.464ZM29.8496 92.7555C31.8771 91.4377 34.4114 92.4514 35.5264 94.1747C36.2361 95.1377 35.6785 95.9487 34.1579 95.8474C32.9415 96.1008 26.1495 93.4144 29.8496 92.7555ZM32.8401 81.3511C34.7662 81.1991 36.3881 82.2128 37.4525 83.7841C37.7567 84.4937 37.7059 85.3046 37.047 85.5581C35.4251 86.4704 32.5867 82.7703 32.8401 81.3511ZM28.2277 49.6216C30.9141 50.4833 32.536 52.8656 33.2963 55.5012C33.8032 57.3259 34.5128 59.0999 33.8538 61.026C32.2826 58.2383 30.6099 55.5519 29.1907 52.7642C28.6838 51.8011 28.1263 50.9395 27.6701 49.9258C27.5687 49.7737 27.9743 49.5203 28.2277 49.6216ZM27.1126 50.7874C29.1907 54.7916 30.9647 58.5931 33.2963 62.1411C28.8866 60.0123 26.8085 54.6902 27.1126 50.7874ZM34.9689 39.4844C37.5032 41.2077 39.0238 44.2996 39.3786 47.2394C39.2773 47.1887 39.0745 47.138 39.0238 47.0367C38.2635 45.8709 37.4525 44.7051 36.7429 43.4886C36.4388 42.8297 34.5634 39.8899 34.9689 39.4844ZM33.8032 40.042C34.6141 42.8297 36.5402 45.0599 37.9087 47.6956C34.2086 45.4147 33.4484 42.0187 33.8032 40.042ZM47.3363 39.5858C45.4609 36.5953 44.0418 33.7062 42.9267 30.665C46.7281 32.3884 46.6267 36.0378 47.3363 39.5858ZM41.9129 31.2226C43.1294 33.9596 44.1431 36.8487 46.0692 39.4844C42.4198 36.8994 41.0513 34.061 41.9129 31.2226ZM50.1747 56.667C47.9445 56.6163 44.5486 53.4738 44.5993 50.9395C44.3458 48.1517 46.9815 49.571 47.7925 51.0409C48.1473 51.345 51.3912 57.1232 50.1747 56.667ZM42.9773 64.7768C42.7239 62.8507 44.65 62.8 45.7144 63.9151C47.3364 65.1823 48.5021 67.007 49.4144 68.8317C46.8295 69.2372 43.6363 67.2097 42.9773 64.7768ZM41.6595 78.9182C40.291 77.9045 40.0375 75.0661 42.217 75.0154C43.2308 75.0154 43.839 75.7757 44.5486 76.2318C46.4747 77.3976 47.8432 79.0703 48.8569 81.1484C46.2212 80.9963 43.687 80.7936 41.6595 78.9182ZM46.576 94.935C43.839 94.935 40.7978 93.9213 39.3786 91.2856C38.8718 90.6267 38.9224 89.0047 40.0882 89.2075C42.5718 89.8664 44.3965 91.7925 45.9171 93.7692C46.1705 94.124 46.7788 94.3268 46.576 94.935ZM46.1198 108.62C43.7883 108.316 38.9731 108.063 38.4156 104.971C39.6827 102.842 46.7281 106.846 47.7925 108.468L46.1198 108.62ZM46.6774 123.319C43.6869 123.978 40.5444 123.015 38.4663 120.785C38.1621 120.481 38.0608 120.025 38.2128 119.619C39.2772 117.237 46.3733 121.545 47.3363 123.015C47.0829 123.167 46.8801 123.319 46.6774 123.319ZM45.7144 136.295C45.613 136.65 45.3595 136.447 45.1568 136.498C43.3321 137.156 36.5909 136.092 36.9457 133.456C37.3512 131.074 43.991 134.115 44.802 135.332C45.0555 135.737 45.8158 135.839 45.7144 136.295ZM42.8253 148.054C40.6964 147.902 38.2128 148.713 36.4895 146.99C35.6785 146.077 34.9183 145.064 35.8306 143.948C36.6923 142.884 37.7566 143.594 38.7704 143.999C40.6964 144.81 42.065 146.381 43.4842 147.801C43.2308 147.851 43.028 148.003 42.8253 148.054ZM51.3405 153.123C53.2666 155.657 54.5845 161.03 51.0871 162.753C50.0227 163.108 49.4651 162.398 49.2117 161.587C49.0596 161.08 48.6542 160.573 48.9076 160.016C48.9076 158.293 49.4651 156.772 49.972 155.201C50.1747 154.745 50.4789 152.008 51.3405 153.123ZM64.5189 144.709C71.615 142.58 70.4492 152.058 59.6531 147.75C61.0723 146.432 62.6435 145.368 64.5189 144.709ZM59.3489 134.673C66.7998 129.908 70.9561 135.535 65.9888 136.498C63.6573 136.65 61.3257 136.498 59.2982 135.129C59.0448 134.977 59.1462 134.774 59.3489 134.673ZM66.6477 118.91C73.389 118.605 70.0437 124.941 61.3257 121.444C62.9476 120.177 64.4175 118.91 66.6477 118.91ZM61.8832 107.201C67.4587 103.248 72.4766 107.1 66.9011 108.57C66.2422 108.468 60.8188 108.012 61.8832 107.201ZM63.2518 95.898C65.3299 94.8336 68.1683 93.313 70.3985 94.6816C70.804 94.935 70.7533 95.3405 70.6519 95.746C70.3985 96.6583 69.4354 96.3035 69.182 96.557C67.0532 97.2159 65.2285 96.557 63.4038 96.6076C63.1504 96.6076 62.8969 96.4556 62.6435 96.3542C62.7956 96.2022 63.049 96.0501 63.2518 95.898ZM64.1641 80.6922C65.4819 80.0333 66.9012 79.7292 68.3204 79.7799C68.9286 79.7799 69.03 80.4388 69.03 80.9456C69.03 81.9087 68.1683 82.3142 67.6108 82.4155C65.634 82.6183 63.6573 83.2265 61.7312 82.9224C62.5422 82.1621 63.1504 81.1991 64.1641 80.6922ZM60.2613 55.2985C60.2106 55.3999 60.1092 55.5012 60.0078 55.6026C58.8928 53.119 61.8833 47.7463 64.2148 46.5805C62.7956 49.6216 61.4777 52.308 60.2613 55.2985ZM61.8832 55.0957C61.1229 55.704 61.6298 54.6903 61.6805 54.3861C62.897 52.1053 63.6572 49.4189 65.1778 47.3915C65.5326 50.1792 64.1134 53.1697 61.8832 55.0957ZM70.7533 55.856C72.3245 60.215 73.0342 64.7768 74.9602 69.0851C71.2095 67.7166 68.4217 58.9479 70.7533 55.856ZM76.0246 68.1728C76.0246 68.2234 75.9233 68.2741 75.8726 68.3248C74.7068 64.1179 73.9466 59.8095 72.3246 55.704C72.2232 55.4505 72.2232 55.0451 72.3246 54.893C72.5273 54.6903 72.7301 55.045 72.9328 55.1971C75.6699 57.3766 76.4302 60.8233 76.8863 64.0672C76.937 65.5371 76.1767 66.8042 76.0246 68.1728ZM76.1261 87.028C74.2507 88.6499 72.4767 88.9034 71.3109 87.6869C71.0574 87.3828 71.0574 87.18 71.2095 86.8759C72.2739 85.3553 73.8959 85.0005 75.6699 84.7471C76.2274 84.8485 76.7849 84.8485 77.2918 84.9498C76.937 85.6595 76.785 86.4704 76.1261 87.028ZM80.6371 95.6953C80.1809 99.0913 73.1862 102.487 75.163 98.5337C75.8219 97.1652 77.0891 96.3542 78.5083 95.898C79.1165 95.6953 79.522 95.1377 80.2316 95.1884C80.5864 95.2391 80.7891 95.0364 80.6371 95.6953ZM88.9496 96.6076C91.0784 98.4323 92.9538 101.727 91.5346 104.413C91.3825 104.768 90.9264 105.123 90.5716 104.971C89.862 104.667 89.6592 103.906 89.4058 103.298C88.4427 101.119 88.4934 98.8378 88.9496 96.6076ZM103.192 96.3542C102.736 97.1652 101.722 96.8104 100.861 96.7597C98.8841 96.6076 97.6676 95.2391 96.2991 94.124C95.7922 93.7185 95.6402 92.9582 94.8799 92.7555C97.617 92.2486 100.151 92.6034 102.28 94.4788C102.939 94.9857 103.547 95.6953 103.192 96.3542ZM15.0493 6.79191C15.6069 5.98093 16.1644 6.23436 16.7726 6.13299C17.026 6.0823 17.1781 6.0823 16.9247 6.4371C16.0123 7.70425 15.2013 9.07278 14.3904 10.3906C13.7821 11.4043 13.5287 12.6208 12.3123 13.3304C8.71354 15.5606 6.99018 18.8045 7.90253 22.9101C8.3587 24.532 9.2711 25.1403 10.4876 23.6197C11.1972 22.9101 12.0081 22.1498 12.5657 21.2881C13.8328 19.3114 15.1 17.3346 14.6438 14.6989C14.5424 14.0907 13.8328 13.5838 14.1369 12.9249C15.6575 9.88376 17.5329 7.04533 19.7631 4.46034C20.9796 6.33573 20.422 6.18367 20.3714 8.05906C20.5741 9.3769 20.9289 10.6947 21.3343 11.9619C21.9426 13.7359 23.7673 15.3072 25.7441 15.3072C27.8729 15.5606 27.3153 11.7591 27.0619 10.492C26.7578 8.41386 23.9701 5.67681 21.8919 5.57544C21.6385 5.57544 20.422 3.64937 20.574 3.44662C21.1316 1.87535 24.8824 -0.658948 24.4769 -1.9261C24.0207 -2.78776 22.3988 -0.202774 21.9426 0.101343C20.8275 1.41918 19.611 2.68633 18.6987 4.15623C18.3439 4.76446 15.5055 5.62612 15.1 5.22064C12.6671 3.04113 7.95326 3.24388 5.67239 5.52475C1.76956 8.92072 12.0588 11.7085 15.0493 6.79191ZM9.01766 22.606C8.71354 21.0347 8.56148 19.6155 9.27109 18.1963C9.9807 17.0305 10.6396 15.5099 11.9574 14.9524C11.0958 17.4867 10.0314 19.9196 9.01766 22.606ZM12.667 19.2607C12.2109 20.4771 11.3492 21.3388 10.3355 22.2005C11.2985 19.7169 12.2109 17.1319 13.4273 14.7496C14.1876 16.1688 13.0725 17.8415 12.667 19.2607ZM26.2509 13.4825C24.9838 11.3537 23.7166 9.22484 22.4495 7.09602C25.0345 7.65357 26.555 11.1509 26.2509 13.4825ZM21.5878 7.85631C23.007 9.98513 24.3756 12.1139 25.6934 14.3948C23.0577 14.3948 21.2837 10.4413 21.5878 7.85631ZM11.0958 4.81515C11.6533 4.86583 13.3766 5.06858 13.6808 5.52475C11.2985 5.82887 8.46013 6.38642 5.92582 6.79191C7.29435 5.16995 9.11902 4.76446 11.0958 4.81515ZM6.17925 7.65357L14.3397 6.33573C11.8054 9.07278 8.05464 8.87003 6.17925 7.65357Z" fill="#592116"/>
</g>
</svg>
